<?xml version="1.0" encoding="UTF-8"?>
<!DOCTYPE svg PUBLIC "-//W3C//DTD SVG 1.1//EN" "http://www.w3.org/Graphics/SVG/1.1/DTD/svg11.dtd">
<!-- Creator: CorelDRAW -->
<svg xmlns="http://www.w3.org/2000/svg" xml:space="preserve" width="6.76083in" height="0.874335in" style="shape-rendering:geometricPrecision; text-rendering:geometricPrecision; image-rendering:optimizeQuality; fill-rule:evenodd; clip-rule:evenodd"
viewBox="0 0 6.87489 0.889086"
 xmlns:xlink="http://www.w3.org/1999/xlink">
 <defs>
  <style type="text/css">
   <![CDATA[
    .fil0 {fill:#153E22}
    .fil3 {fill:black;fill-rule:nonzero}
    .fil1 {fill:white;fill-rule:nonzero}
    .fil2 {fill:url(#id0)}
   ]]>
  </style>
  <linearGradient id="id0" gradientUnits="userSpaceOnUse" x1="3.45663" y1="0.725166" x2="3.45663" y2="0.163916">
   <stop offset="0" style="stop-color:#D7D7D7"/>
   <stop offset="0.65098" style="stop-color:#FEFEFE"/>
   <stop offset="1" style="stop-color:white"/>
  </linearGradient>
 </defs>
 <g id="Layer_x0020_1">
  <metadata id="CorelCorpID_0Corel-Layer"/>
  <g id="_478192112">
   <g>
    <path id="_478192688" class="fil0" d="M5.07635 0.101831l1.6332 0 -1.59766 0.10459 0.166411 0.4897 1.43125 0.0936963 -1.39941 0 0.0337329 0.0992691 -3.48279 0 -0.0337329 -0.0992691 -1.59296 0 1.55744 -0.104514 -0.166563 -0.490136 -1.39088 -0.093336 1.35916 0 -0.0346057 -0.101831 3.4828 0 0.0346057 0.101831zm1.40156 0.218751c0.0213583,0.063014 0.0427927,0.12606 0.0640829,0.189154 0.0212702,0.063042 0.0423963,0.126136 0.0635945,0.189154 0.0375041,0.00288647 0.0751684,0.00572491 0.112837,0.00861138 -0.0220149,-0.0650277 -0.0440217,-0.13016 -0.0660406,-0.195291 -0.0220069,-0.0650798 -0.0441899,-0.130212 -0.0663649,-0.195339 0.0582099,-0.00196168 0.116424,-0.00391936 0.174802,-0.00593309 -0.0119062,-0.035014 -0.0238084,-0.070028 -0.0357106,-0.105094 -0.074684,0.00479211 -0.149368,0.00953617 -0.223884,0.0142842 -0.0743597,0.00473606 -0.14904,0.00948813 -0.22356,0.0142322 0.0102768,0.0306823 0.0203855,0.0612645 0.0306543,0.0919428 0.0564204,-0.00190563 0.113005,-0.00386331 0.169589,-0.0057209zm-0.137626 0.357987c-0.0107652,-0.0321235 -0.0213623,-0.0643031 -0.0321235,-0.0964827 -0.102075,-0.00479611 -0.203991,-0.00959222 -0.30607,-0.0143883 -0.00782671,-0.0236683 -0.0154893,-0.0472365 -0.023316,-0.0709048 0.0593549,0.00134115 0.118874,0.0026823 0.178225,0.0039714 -0.00994052,-0.0304781 -0.0200532,-0.0610603 -0.030326,-0.0916385 -0.0587023,0.000516443 -0.117565,0.000976837 -0.176435,0.00144524 -0.00782671,-0.0235682 -0.0154893,-0.0471844 -0.0231518,-0.0708567 0.0993051,-0.00335488 0.19861,-0.00670575 0.298075,-0.0100566 -0.0101087,-0.0299617 -0.0200532,-0.0600234 -0.0300017,-0.0900372 -0.0648996,0.00412353 -0.129963,0.00822305 -0.194863,0.0123786 -0.0648956,0.00415156 -0.129795,0.00829911 -0.194691,0.0124226 0.0207057,0.0637947 0.0414235,0.127681 0.0621252,0.191424 0.0207178,0.0637867 0.0414155,0.127581 0.0621293,0.19132 0.0683186,0.00520846 0.136809,0.0104409 0.205128,0.0156774 0.0683266,0.00523248 0.136809,0.010469 0.205296,0.0157255zm-0.568759 -0.185539c0.00586503,0.0161739 0.0106091,0.032692 0.0158176,0.0489379 0.00522448,0.016294 0.0106091,0.032688 0.0158176,0.04899 0.00946812,0.0296454 0.0009328,0.0459954 -0.0259302,0.0445021 -0.0689071,-0.00382328 -0.137786,-0.010517 -0.206433,-0.0157815 -0.0686508,-0.00525651 -0.137626,-0.0105691 -0.206277,-0.0157775 -0.0158176,-0.0508476 -0.031475,-0.101795 -0.0471244,-0.152643 -0.0156574,-0.0508956 -0.0313028,-0.101847 -0.0469603,-0.152799 0.0648996,-0.00412754 0.130128,-0.00821904 0.195183,-0.0123746 0.0649036,-0.00414755 0.130124,-0.00831112 0.195347,-0.0124827 0.0242968,-0.00155333 0.043177,0.014016 0.0551192,0.0471884 0.00550872,0.0153131 0.00995253,0.0309866 0.0150009,0.0464118 0.00506034,0.0154653 0.00911581,0.0312308 0.0148367,0.0463597 0.00929196,0.0245611 0.000980841,0.0371799 -0.0278839,0.0387812 0.0247852,-0.00103689 0.043209,0.0123466 0.0534858,0.0406869zm-0.36836 -0.0832353c0.0779468,-0.000824707 0.15589,-0.00164141 0.233832,-0.00242208 0.00946011,-9.60824e-005 0.0117901,-0.00713011 0.00733829,-0.020986 -0.00158136,-0.00491621 -0.00316271,-0.00972834 -0.00472805,-0.0146486 -0.00430769,-0.0135396 -0.0110895,-0.0202534 -0.0202173,-0.0199571 -0.0772942,0.00253818 -0.154588,0.00510438 -0.231879,0.00763054 0.00522047,0.0168144 0.0104369,0.0336248 0.0156534,0.0503832zm0.0409311 0.131244c0.0797363,0.00376323 0.159473,0.00750643 0.239213,0.0112416 0.0094561,0.000440377 0.0119863,-0.00626937 0.00749843,-0.0202133 -0.00154933,-0.00482013 -0.0030346,-0.00971633 -0.00456792,-0.0145965 -0.00433572,-0.0138399 -0.0114138,-0.0209059 -0.0208699,-0.0211421 -0.0790838,-0.0019817 -0.158168,-0.0039714 -0.237091,-0.00598113 0.00538061,0.0169665 0.0104369,0.033825 0.0158176,0.0506914zm-4.31853 -0.286405c0.030338,0.00224192 0.0608442,0.00454389 0.0913503,0.00684186 0.0164901,0.0476969 0.0328882,0.0953137 0.0493023,0.142927 0.0163981,0.0475688 0.032648,0.0952376 0.0488058,0.142826 0.0740395,-0.00267429 0.147915,-0.00540463 0.221782,-0.00807492 -0.0145084,-0.0433652 -0.0290849,-0.0867103 -0.0436935,-0.130096 -0.0145765,-0.0432891 -0.029185,-0.0867303 -0.0438656,-0.130152 0.0310026,0.00230197 0.0620051,0.00465199 0.0931679,0.00694996 0.0150049,0.0447584 0.0300097,0.0894607 0.0448544,0.134163 0.0148367,0.0447023 0.0297975,0.0894206 0.0446823,0.134159 0.0103409,0.0310826 -0.00210981,0.0507995 -0.0374281,0.0538982 -0.095666,0.0084032 -0.191608,0.0131953 -0.28725,0.019785 -0.0316591,0.00218187 -0.0566646,-0.0155974 -0.0713972,-0.054859 -0.0197449,-0.0526371 -0.0367875,-0.106195 -0.0550752,-0.159184 -0.0183197,-0.0530975 -0.0367715,-0.106087 -0.0552353,-0.159184zm0.0126949 0.328261c0.0118702,0.0342734 -0.00217787,0.0551553 -0.0430369,0.0595671 -0.0365073,0.00393537 -0.133402,0.00950815 -0.290709,0.0200532 -0.0310026,0.00207378 -0.0563483,-0.0181796 -0.0733789,-0.0620292 -0.010517,-0.0270832 -0.0241567,-0.068847 -0.0438616,-0.124214 -0.0197049,-0.0553715 -0.0447584,-0.124619 -0.0748642,-0.208006 -0.0119422,-0.0330764 0.0050163,-0.0509637 0.0502951,-0.0483895 0.0975716,0.00555276 0.194907,0.0145805 0.292359,0.0219228 0.0408951,0.00308264 0.0696437,0.0189282 0.0814578,0.0495144 0.0185479,0.0480292 0.0340492,0.0972353 0.0509517,0.145817 0.0168985,0.0485776 0.033801,0.0972113 0.0507875,0.145765zm-0.0958061 -0.0236883c-0.0135196,-0.0387692 -0.0269751,-0.0776105 -0.0405628,-0.116356 -0.0136237,-0.0388453 -0.0272073,-0.0776385 -0.0408951,-0.116464 -0.0817861,-0.0037392 -0.163576,-0.00748241 -0.245358,-0.0112256 0.0150009,0.0421361 0.0300177,0.0843723 0.0450106,0.12646 0.0150169,0.0421321 0.0300137,0.0842682 0.0448544,0.126404 0.0789837,-0.00293852 0.157967,-0.00588104 0.236951,-0.00881956zm-0.65364 0.131913c-0.0135196,-0.0369477 -0.0271953,-0.0738953 -0.0405668,-0.110851 -0.0133394,-0.0368916 -0.0267109,-0.0739994 -0.0402305,-0.111003 -0.0504592,-0.0475367 -0.101467,-0.0960343 -0.152363,-0.145493 -0.0516683,-0.050211 -0.103553,-0.101547 -0.155661,-0.15368 0.050127,0.00379525 0.100586,0.00759451 0.151045,0.0113898 0.0267109,0.0262545 0.053702,0.0523489 0.0803048,0.0780149 0.0264907,0.0255579 0.0532576,0.0507475 0.0798084,0.0757689 0.00857135,-0.0235802 0.0172067,-0.0469362 0.0262185,-0.0699399 0.00895968,-0.0228756 0.0181395,-0.045451 0.0276997,-0.0678021 0.0502951,0.00379525 0.100918,0.00759451 0.151538,0.0113898 -0.0184678,0.0411192 -0.0369997,0.0831072 -0.0542505,0.126032 -0.017539,0.0436494 -0.0344615,0.0884398 -0.0509517,0.133947 0.012863,0.0359308 0.0257541,0.0719136 0.0387492,0.107692 0.0130552,0.0359268 0.0260543,0.0717575 0.0390775,0.10758 -0.0334687,0.00235402 -0.0671095,0.00465599 -0.100418,0.00695396z"/>
    <g>
     <path id="_478194608" class="fil1" d="M4.50021 0.752097l0.220413 -0.615107 0.205036 0 0.220413 0.615107 -0.200764 0 -0.0239205 -0.0811616 -0.200764 0 -0.0230678 0.0811616 -0.197345 0zm0.321223 -0.42972l-0.0623655 0.220413 0.127293 0 -0.0649277 -0.220413z"/>
     <polygon id="_478191752" class="fil1" points="4.3119,0.472733 4.30422,0.332625 4.30422,0.136989 4.49729,0.136989 4.49729,0.752097 4.30849,0.752097 4.08893,0.417206 4.09662,0.55731 4.09662,0.752097 3.90354,0.752097 3.90354,0.136989 4.09234,0.136989 "/>
     <polygon id="_478194320" class="fil1" points="3.66569,0.472733 3.658,0.332625 3.658,0.136989 3.85108,0.136989 3.85108,0.752097 3.66227,0.752097 3.44271,0.417206 3.45041,0.55731 3.45041,0.752097 3.25733,0.752097 3.25733,0.136989 3.44613,0.136989 "/>
     <path id="_478194656" class="fil1" d="M2.60855 0.752097l0.220413 -0.615107 0.205036 0 0.220413 0.615107 -0.200764 0 -0.0239205 -0.0811616 -0.200764 0 -0.0230638 0.0811616 -0.197349 0zm0.321223 -0.42972l-0.0623655 0.220413 0.127293 0 -0.0649277 -0.220413z"/>
     <polygon id="_478192856" class="fil1" points="2.42286,0.462492 2.54616,0.136989 2.74522,0.136989 2.52247,0.752097 2.32326,0.752097 2.25614,0.566758 2.18902,0.752097 1.9898,0.752097 1.76705,0.136989 1.96611,0.136989 2.08941,0.462492 2.21271,0.136989 2.29957,0.136989 "/>
    </g>
    <path id="_478192760" class="fil2" d="M4.53846 0.725166l0.138751 0 0.0230678 -0.0811576 0.241243 0 0.0239205 0.0811576 0.14237 0 -0.201112 -0.561249 -0.167123 0 -0.201116 0.561249zm0.282446 -0.49986l0.101455 0.344411 -0.198902 0 0.0974475 -0.344411zm-2.53993 -0.0613886l-0.0496666 0 -0.141894 0.374597 -0.141894 -0.374597 -0.14207 0 0.203242 0.561249 0.161442 0 0.0860057 -0.2375 0.0860057 0.2375 0.161442 0 0.203242 -0.561249 -0.14207 0 -0.141894 0.374597 -0.141894 -0.374597zm0.365838 0.561249l0.138747 0 0.0230678 -0.0811576 0.241243 0 0.0239205 0.0811576 0.142374 0 -0.201116 -0.561249 -0.167123 0 -0.201112 0.561249zm0.282446 -0.49986l0.101455 0.344411 -0.198906 0 0.0974515 -0.344411zm0.502311 -0.0613886l-0.147306 0 0 0.561249 0.139215 0 0 -0.167115 -0.0131353 -0.239345 0.26648 0.40646 0.14733 0 0 -0.561249 -0.139219 0 0 0.167972 0.0131473 0.239577 -0.266512 -0.407549zm0.646214 0l-0.14731 0 0 0.561249 0.139219 0 0 -0.167115 -0.0131353 -0.239345 0.26648 0.40646 0.14733 0 0 -0.561249 -0.139219 0 0 0.167972 0.0131473 0.239577 -0.266512 -0.407549z"/>
   </g>
   <path id="_478194992" class="fil3" d="M6.80608 0.0611324c0.0118021,0 0.0231198,0.00294653 0.0339411,0.0088636 0.0108573,0.00588504 0.0193846,0.0143523 0.0255779,0.0253577 0.00619331,0.0110455 0.00929196,0.0225753 0.00929196,0.0345977 0,0.0119863 -0.0030346,0.0234281 -0.00910781,0.0342814 -0.00610123,0.0108573 -0.0145645,0.0193486 -0.0254538,0.0254218 -0.0108573,0.00607321 -0.0222911,0.00910781 -0.0342494,0.00910781 -0.0119943,0 -0.0234001,-0.0030346 -0.0342894,-0.00910781 -0.0108573,-0.00607321 -0.0193486,-0.0145645 -0.0254218,-0.0254218 -0.00607321,-0.0108533 -0.00910781,-0.0222951 -0.00910781,-0.0342814 0,-0.0120223 0.00309866,-0.0235522 0.00929196,-0.0345977 0.00619331,-0.0110054 0.0147206,-0.0194727 0.0255419,-0.0253577 0.0108573,-0.00591707 0.022175,-0.0088636 0.0339851,-0.0088636zm8.80755e-005 0.0134956c-0.00947612,0 -0.0185519,0.00235802 -0.0272273,0.00708207 -0.00867944,0.00472005 -0.0155213,0.0115299 -0.0205176,0.0203935 -0.00503231,0.00885959 -0.00751844,0.0181516 -0.00751844,0.0278479 0,0.00965227 0.00245811,0.0188562 0.00733429,0.0275957 0.00487218,0.00873949 0.011682,0.0155774 0.0204215,0.0204816 0.00873949,0.00491221 0.0179073,0.00736231 0.0275076,0.00736231 0.00962825,0 0.0187961,-0.0024501 0.0275356,-0.00736231 0.00871147,-0.0049042 0.0155213,-0.0117421 0.0204255,-0.0204816 0.00490821,-0.00873949 0.00736231,-0.0179434 0.00736231,-0.0275957 0,-0.00969631 -0.00248213,-0.0189883 -0.00748241,-0.0278479 -0.00500029,-0.0088636 -0.0118742,-0.0156734 -0.0205776,-0.0203935 -0.00871147,-0.00472405 -0.0178193,-0.00708207 -0.0272634,-0.00708207zm-0.0311867 0.092151l0 -0.0730146 0.0148407 0c0.0138919,0 0.0216826,6.00515e-005 0.02334,0.000184158 0.0049042,0.00039634 0.00873949,0.00137718 0.0114658,0.0029145 0.00273034,0.00152531 0.00500029,0.00385931 0.00680984,0.00698599 0.00183758,0.00315871 0.00275836,0.00665771 0.00275836,0.010493 0,0.00524049 -0.00171347,0.00974836 -0.00518044,0.0134876 -0.00343895,0.00377123 -0.0082831,0.00607321 -0.0145044,0.00699399 0.00220589,0.00082871 0.00392336,0.0017455 0.00511639,0.00272634 0.00120103,0.000984844 0.00285445,0.00285445 0.00494023,0.00561681 0.000552474,0.0007006 0.002334,0.00367515 0.00539663,0.00888762l0.00861538 0.0147246 -0.0183037 0 -0.00613326 -0.0118381c-0.00411152,-0.00797484 -0.00754647,-0.0130031 -0.0102448,-0.0150569 -0.00267029,-0.00205376 -0.00610123,-0.00309866 -0.0102408,-0.00309866l-0.00383529 0 0 0.0299937 -0.0148407 0zm0.0148407 -0.0414956l0.00600915 0c0.00855533,0 0.0138639,-0.000332285 0.0159497,-0.000976837 0.00205376,-0.000672576 0.00367915,-0.00181355 0.00487218,-0.00346297 0.00122905,-0.00165742 0.00180955,-0.00352702 0.00180955,-0.00561681 0,-0.00205376 -0.000580498,-0.00385931 -0.0017455,-0.00542865 -0.001169,-0.00158936 -0.00281842,-0.00273034 -0.00499628,-0.00343094 -0.00214984,-0.00067658 -0.00745439,-0.00101287 -0.0158896,-0.00101287l-0.00600915 0 0 0.0199291z"/>
  </g>
 </g>
</svg>
