<?xml version="1.0" encoding="UTF-8"?>
<!DOCTYPE svg PUBLIC "-//W3C//DTD SVG 1.1//EN" "http://www.w3.org/Graphics/SVG/1.1/DTD/svg11.dtd">
<!-- Creator: CorelDRAW -->
<svg xmlns="http://www.w3.org/2000/svg" xml:space="preserve" width="6.76083in" height="0.874335in" style="shape-rendering:geometricPrecision; text-rendering:geometricPrecision; image-rendering:optimizeQuality; fill-rule:evenodd; clip-rule:evenodd"
viewBox="0 0 0.683957 0.0884518"
 xmlns:xlink="http://www.w3.org/1999/xlink">
 <defs>
  <style type="text/css">
   <![CDATA[
    .fil0 {fill:#B4CE2D}
   ]]>
  </style>
 </defs>
 <g id="Layer_x0020_1">
  <metadata id="CorelCorpID_0Corel-Layer"/>
  <path class="fil0" d="M0.505028 0.0101308l0.162481 0 -0.158945 0.0104052 0.0165556 0.0487184 0.14239 0.0093215 -0.139222 0 0.00335596 0.00987591 -0.34649 0 -0.00335596 -0.00987591 -0.158477 0 0.154944 -0.0103977 -0.0165707 -0.0487618 -0.138373 -0.00928565 0.135217 0 -0.00344279 -0.0101308 0.34649 0 0.00344279 0.0101308zm0.139436 0.0217628c0.00212486,0.00626903 0.00425728,0.0125412 0.00637537,0.0188182 0.0021161,0.00627182 0.00421785,0.0125488 0.00632678,0.0188182 0.00373115,0.000287165 0.00747823,0.00056955 0.0112257,0.000856714 -0.00219018,-0.00646937 -0.00437956,-0.0129491 -0.00657013,-0.0194288 -0.00218938,-0.00647454 -0.00439629,-0.0129543 -0.00660239,-0.0194336 0.00579108,-0.00019516 0.0115826,-0.000389922 0.0173904,-0.00059026 -0.0011845,-0.00348341 -0.00236861,-0.00696683 -0.00355271,-0.0104554 -0.00743003,0.000476749 -0.0148601,0.000948718 -0.0222734,0.00142109 -0.00739777,0.000471173 -0.0148274,0.000943939 -0.0222411,0.00141591 0.0010224,0.00305247 0.00202807,0.00609498 0.00304968,0.00914705 0.00561305,-0.000189584 0.0112424,-0.000384346 0.0168718,-0.000569151zm-0.0136919 0.0356148c-0.00107099,-0.00319585 -0.00212526,-0.00639728 -0.00319585,-0.0095987 -0.0101551,-0.000477147 -0.0202943,-0.000954294 -0.0304498,-0.00143144 -0.00077865,-0.00235467 -0.00154097,-0.00469938 -0.00231962,-0.00705405 0.00590499,0.000133426 0.0118263,0.000266852 0.0177309,0.0003951 -0.000988945,-0.00303215 -0.00199502,-0.00607466 -0.00301702,-0.00911678 -0.00584007,5.13789e-005 -0.0116961,9.71819e-005 -0.0175529,0.000143781 -0.00077865,-0.00234471 -0.00154097,-0.0046942 -0.00230329,-0.00704927 0.00987949,-0.000333764 0.019759,-0.00066713 0.0296544,-0.0010005 -0.00100567,-0.00298078 -0.00199502,-0.00597151 -0.00298476,-0.00895746 -0.00645662,0.000410235 -0.0129296,0.00081808 -0.0193862,0.0012315 -0.00645622,0.000413023 -0.0129128,0.000825648 -0.0193691,0.00123588 0.00205994,0.00634669 0.00412107,0.0127025 0.00618061,0.0190441 0.00206113,0.0063459 0.00412027,0.0126926 0.00618101,0.0190337 0.00679676,0.000518171 0.0136106,0.00103873 0.0204074,0.00155969 0.00679755,0.00052056 0.0136106,0.00104152 0.0204241,0.00156447zm-0.0565838 -0.0184586c0.00058349,0.00160908 0.00105546,0.00325241 0.00157363,0.00486865 0.000519764,0.00162103 0.00105546,0.00325201 0.00157363,0.00487383 0.000941947,0.00294931 9.28007e-005,0.00457591 -0.0025797,0.00442735 -0.00685531,-0.000380364 -0.0137078,-0.0010463 -0.0205372,-0.00157005 -0.00682982,-0.00052295 -0.0136919,-0.00105148 -0.0205217,-0.00156965 -0.00157363,-0.00505864 -0.00313133,-0.0101272 -0.00468823,-0.0151859 -0.0015577,-0.00506342 -0.0031142,-0.0101324 -0.0046719,-0.0152014 0.00645662,-0.000410633 0.0129459,-0.000817682 0.0194181,-0.0012311 0.00645702,-0.000412625 0.0129455,-0.000826843 0.0194344,-0.00124186 0.0024172,-0.000154535 0.00429552,0.0013944 0.00548361,0.0046946 0.000548042,0.00152345 0.00099014,0.00308274 0.00149238,0.00461733 0.000503434,0.00153858 0.000906898,0.00310703 0.00147605,0.00461216 0.000924423,0.00244349 9.75802e-005,0.00369889 -0.00277406,0.0038582 0.00246579,-0.000103156 0.00429871,0.00122832 0.00532111,0.00404778zm-0.0366467 -0.00828077c0.00775464,-8.2047e-005 0.0155089,-0.000163297 0.0232631,-0.000240963 0.000941151,-9.55887e-006 0.00117295,-0.000709348 0.000730059,-0.00208782 -0.000157323,-0.000489096 -0.000314646,-0.000967836 -0.000470376,-0.00145733 -0.000428556,-0.001347 -0.00110325,-0.00201493 -0.00201135,-0.00198546 -0.00768972,0.000252514 -0.0153794,0.000507815 -0.0230687,0.000759134 0.000519365,0.0016728 0.00103833,0.00334521 0.0015573,0.00501243zm0.00407208 0.013057c0.00793267,0.000374389 0.0158653,0.000746787 0.0237984,0.00111839 0.000940753,4.38115e-005 0.00119247,-0.000623717 0.00074599,-0.00201095 -0.000154137,-0.000479537 -0.000301901,-0.000966641 -0.000454445,-0.00145215 -0.000431344,-0.00137688 -0.00113551,-0.00207985 -0.00207627,-0.00210335 -0.00786775,-0.000197152 -0.0157355,-0.0003951 -0.0235873,-0.00059504 0.000535297,0.00168794 0.00103833,0.00336512 0.00157363,0.0050431zm-0.429634 -0.0284934c0.00301821,0.00022304 0.00605316,0.000452055 0.0090881,0.000680671 0.00164054,0.00474518 0.00327192,0.0094824 0.0049049,0.0142192 0.00163138,0.00473244 0.00324803,0.00947484 0.00485551,0.0142093 0.00736591,-0.000266055 0.0147155,-0.000537687 0.0220643,-0.000803344 -0.00144339,-0.00431424 -0.00289355,-0.00862649 -0.0043469,-0.0129427 -0.00145016,-0.00430667 -0.00290351,-0.00862848 -0.00436402,-0.0129483 0.00308433,0.000229015 0.00616866,0.000462809 0.00926892,0.000691425 0.00149278,0.00445284 0.00298556,0.00890011 0.0044624,0.0133474 0.00147605,0.00444727 0.00296445,0.00889613 0.00444527,0.013347 0.00102877,0.0030923 -0.000209897,0.00505386 -0.00372358,0.00536213 -0.00951745,0.000836003 -0.0190624,0.00131275 -0.0285774,0.00196833 -0.00314965,0.000217066 -0.00563735,-0.00155172 -0.00710304,-0.00545772 -0.00196435,-0.00523667 -0.00365985,-0.0105649 -0.00547923,-0.0158367 -0.00182256,-0.00528247 -0.00365826,-0.0105542 -0.00549516,-0.0158367zm0.00126297 0.0326575c0.00118092,0.00340973 -0.000216668,0.00548719 -0.00428158,0.0059261 -0.00363197,0.000391516 -0.0132717,0.00094593 -0.0289216,0.00199502 -0.00308433,0.000206312 -0.00560588,-0.00180862 -0.00730019,-0.00617105 -0.0010463,-0.00269441 -0.00240326,-0.00684933 -0.00436363,-0.0123576 -0.00196037,-0.0055087 -0.00445284,-0.0123979 -0.00744796,-0.0206938 -0.00118809,-0.00329064 0.000499053,-0.00507019 0.00500367,-0.00481409 0.00970704,0.000552423 0.0193906,0.00145056 0.0290857,0.00218102 0.0040685,0.000306681 0.00692859,0.0018831 0.00810393,0.00492601 0.00184526,0.00477824 0.00338743,0.00967358 0.00506899,0.0145068 0.00168117,0.00483281 0.00336273,0.00967119 0.00505266,0.0145016zm-0.00953139 -0.00235666c-0.00134501,-0.00385701 -0.00268365,-0.00772118 -0.00403544,-0.0115758 -0.00135537,-0.00386457 -0.00270675,-0.00772397 -0.0040685,-0.0115866 -0.00813659,-0.000372 -0.0162736,-0.000744397 -0.0244098,-0.0011168 0.00149238,0.00419196 0.00298635,0.00839389 0.00447793,0.0125811 0.00149397,0.00419157 0.00298595,0.00838353 0.0044624,0.0125755 0.00785779,-0.000292342 0.0157156,-0.000585083 0.0235734,-0.000877425zm-0.0650282 0.0131235c-0.00134501,-0.00367579 -0.00270556,-0.00735157 -0.00403584,-0.0110282 -0.00132709,-0.00367021 -0.00265737,-0.00736193 -0.00400238,-0.0110433 -0.00502,-0.00472925 -0.0100946,-0.00955409 -0.015158,-0.0144745 -0.00514028,-0.00499531 -0.0103021,-0.0101025 -0.0154862,-0.015289 0.00498694,0.000377576 0.0100069,0.000755549 0.0150269,0.00113312 0.00265737,0.00261196 0.00534261,0.00520799 0.00798923,0.00776141 0.00263546,0.00254266 0.0052984,0.00504868 0.00793984,0.00753797 0.000852731,-0.00234591 0.00171184,-0.00466951 0.00260838,-0.00695806 0.000891365,-0.00227581 0.00180464,-0.00452175 0.00275574,-0.00674538 0.00500367,0.000377576 0.01004,0.000755549 0.0150759,0.00113312 -0.0018373,0.0040908 -0.00368096,0.00826803 -0.00539718,0.0125385 -0.00174489,0.00434252 -0.00342845,0.00879855 -0.00506899,0.0133259 0.00127969,0.00357462 0.00256218,0.00715442 0.00385501,0.0107139 0.00129881,0.00357422 0.00259205,0.00713889 0.00388767,0.0107028 -0.00332967,0.000234192 -0.00667648,0.000463207 -0.00999022,0.000691824zm0.409026 0.0060663l0.0219281 -0.0611947 0.0203982 0 0.0219281 0.0611947 -0.0199733 0 -0.00237976 -0.00807446 -0.0199733 0 -0.00229493 0.00807446 -0.0196331 0zm-0.206667 -0.0288116l0.0122664 -0.0323831 0.0198036 0 -0.0221603 0.0611947 -0.0198195 0 -0.00667727 -0.0184387 -0.00667727 0.0184387 -0.0198195 0 -0.0221603 -0.0611947 0.0198036 0 0.0122664 0.0323831 0.0122664 -0.0323831 0.00864122 0 0.0122664 0.0323831zm0.0184733 0.0288116l0.0219281 -0.0611947 0.0203982 0 0.0219281 0.0611947 -0.0199733 0 -0.00237976 -0.00807446 -0.0199733 0 -0.00229453 0.00807446 -0.0196335 0zm0.0319573 -0.0427513l-0.00620451 0.0219281 0.0126639 0 -0.00645941 -0.0219281zm0.0732134 0.0149584l-0.00076471 -0.0139388 0 -0.0194631 0.0192082 0 0 0.0611947 -0.0187832 0 -0.0218432 -0.0333171 0.000765108 0.0139384 0 0.0193786 -0.0192086 0 0 -0.0611947 0.0187836 0 0.0218428 0.0334019zm0.0642894 0l-0.00076471 -0.0139388 0 -0.0194631 0.0192082 0 0 0.0611947 -0.0187832 0 -0.0218432 -0.0333171 0.00076471 0.0139384 0 0.0193786 -0.0192082 0 0 -0.0611947 0.0187832 0 0.0218432 0.0334019zm0.0506907 -0.0149584l-0.00620451 0.0219281 0.0126639 0 -0.00645941 -0.0219281zm0.197446 -0.0259902c0.00117415,0 0.0023001,0.000293139 0.00337667,0.000881806 0.00108015,0.000585481 0.0019285,0.00142786 0.00254465,0.00252275 0.000616149,0.00109887 0.000924423,0.00224594 0.000924423,0.00344199 0,0.00119247 -0.000301901,0.00233077 -0.000906102,0.00341053 -0.000606989,0.00108015 -0.00144897,0.00192492 -0.00253231,0.00252912 -0.00108015,0.000604201 -0.00221766,0.000906102 -0.00340734,0.000906102 -0.00119327,0 -0.00232798,-0.000301901 -0.00341132,-0.000906102 -0.00108015,-0.000604201 -0.00192492,-0.00144897 -0.00252912,-0.00252912 -0.000604201,-0.00107975 -0.000906102,-0.00221806 -0.000906102,-0.00341053 0,-0.00119605 0.000308274,-0.00234312 0.000924423,-0.00344199 0.000616149,-0.00109489 0.0014645,-0.00193727 0.00254107,-0.00252275 0.00108015,-0.000588667 0.00220611,-0.000881806 0.00338105,-0.000881806zm8.7623e-006 0.00134262c-0.000942744,0 -0.00184566,0.000234591 -0.00270875,0.000704569 -0.000863485,0.00046958 -0.00154416,0.00114706 -0.00204122,0.00202887 -0.000500646,0.000881408 -0.000747982,0.00180583 -0.000747982,0.00277048 0,0.000960269 0.000244548,0.00187593 0.000729661,0.00274539 0.000484715,0.000869459 0.0011622,0.00154973 0.00203166,0.00203763 0.000869459,0.000488697 0.00178154,0.000732449 0.00273663,0.000732449 0.000957879,0 0.00186995,-0.000243751 0.00273941,-0.000732449 0.000866671,-0.000487901 0.00154416,-0.00116817 0.00203206,-0.00203763 0.000488299,-0.000869459 0.000732449,-0.00178512 0.000732449,-0.00274539 0,-0.00096465 -0.000246938,-0.00188907 -0.000744397,-0.00277048 -0.00049746,-0.000881806 -0.00118132,-0.00155929 -0.00204719,-0.00202887 -0.000866671,-0.000469978 -0.00177277,-0.000704569 -0.00271233,-0.000704569zm-0.00310265 0.00916776l0 -0.00726395 0.00147645 0c0.00138205,0 0.00215712,5.9743e-006 0.00232201,1.83212e-005 0.000487901,3.94304e-005 0.000869459,0.000137011 0.00114069,0.000289953 0.000271631,0.000151747 0.00049746,0.000383948 0.000677485,0.00069501 0.000182813,0.000314248 0.000274419,0.00066235 0.000274419,0.00104391 0,0.000521357 -0.000170467,0.000969827 -0.000515383,0.00134183 -0.000342128,0.000375186 -0.000824055,0.000604201 -0.00144299,0.000695806 0.000219456,8.24453e-005 0.000390321,0.000173653 0.00050901,0.000271233 0.000119486,9.79785e-005 0.000283978,0.000283978 0.000491485,0.000558796 5.49635e-005,6.97001e-005 0.000232201,0.000365627 0.00053689,0.000884196l0.000857112 0.0014649 -0.00182097 0 -0.000610175 -0.00117773c-0.00040904,-0.000793387 -0.00075077,-0.00129363 -0.00101921,-0.00149796 -0.000265657,-0.000204321 -0.000606989,-0.000308274 -0.00101882,-0.000308274l-0.000381558 0 0 0.00298396 -0.00147645 0zm0.00147645 -0.00412824l0.000597828 0c0.000851138,0 0.00137927,-3.30578e-005 0.00158677,-9.71819e-005 0.000204321,-6.69121e-005 0.000366025,-0.000180424 0.000484715,-0.000344518 0.000122274,-0.000164891 0.000180025,-0.00035089 0.000180025,-0.000558796 0,-0.000204321 -5.77515e-005,-0.000383948 -0.000173653,-0.000540076 -0.0001163,-0.00015812 -0.000280394,-0.000271631 -0.000497061,-0.000341331 -0.00021388,-6.73104e-005 -0.000741609,-0.000100766 -0.0015808,-0.000100766l-0.000597828 0 0 0.00198267z"/>
 </g>
</svg>
