<?xml version="1.0" encoding="UTF-8"?>
<!DOCTYPE svg PUBLIC "-//W3C//DTD SVG 1.1//EN" "http://www.w3.org/Graphics/SVG/1.1/DTD/svg11.dtd">
<!-- Creator: CorelDRAW -->
<svg xmlns="http://www.w3.org/2000/svg" xml:space="preserve" width="6.76083in" height="0.874335in" style="shape-rendering:geometricPrecision; text-rendering:geometricPrecision; image-rendering:optimizeQuality; fill-rule:evenodd; clip-rule:evenodd"
viewBox="0 0 4.32717 0.559605"
 xmlns:xlink="http://www.w3.org/1999/xlink">
 <defs>
  <style type="text/css">
   <![CDATA[
    .fil0 {fill:black}
   ]]>
  </style>
 </defs>
 <g id="Layer_x0020_1">
  <metadata id="CorelCorpID_0Corel-Layer"/>
  <path class="fil0" d="M3.19514 0.0640943l1.02797 0 -1.00559 0.0658304 0.104742 0.308225 0.900853 0.058974 -0.88081 0 0.021232 0.0624816 -2.19213 0 -0.021232 -0.0624816 -1.00263 0 0.980277 -0.0657826 -0.104837 -0.3085 -0.87544 -0.0587472 0.855476 0 -0.0217814 -0.0640943 2.19213 0 0.0217814 0.0640943zm0.882166 0.137686c0.0134433,0.039662 0.0269344,0.0793443 0.0403348,0.119057 0.0133878,0.0396797 0.0266849,0.0793921 0.0400274,0.119057 0.0236057,0.00181679 0.0473122,0.00360335 0.0710213,0.00542014 -0.0138565,-0.0409295 -0.027708,-0.0819246 -0.041567,-0.12292 -0.0138515,-0.0409623 -0.0278138,-0.0819573 -0.0417711,-0.12295 0.0366383,-0.00123471 0.073279,-0.00246691 0.110023,-0.00373438 -0.00749396,-0.0220384 -0.0149854,-0.0440768 -0.0224768,-0.0661479 -0.0470073,0.00301623 -0.0940147,0.00600222 -0.140916,0.00899074 -0.0468032,0.00298095 -0.093808,0.00597199 -0.140712,0.00895798 0.00646839,0.0193119 0.0128309,0.0385609 0.0192943,0.0578703 0.0355119,-0.00119944 0.0711271,-0.00243163 0.106742,-0.00360083zm-0.086624 0.225323c-0.00677581,-0.0202191 -0.0134458,-0.0404734 -0.0202191,-0.0607278 -0.064248,-0.00301875 -0.128395,-0.0060375 -0.192646,-0.00905625 -0.00492626,-0.0148972 -0.0097492,-0.0297314 -0.0146755,-0.0446286 0.0373589,0.000844141 0.0748212,0.00168828 0.112178,0.00249967 -0.00625673,-0.0191834 -0.0126218,-0.0384324 -0.0190877,-0.0576788 -0.0369482,0.000325057 -0.0739972,0.000614837 -0.111051,0.000909657 -0.00492626,-0.0148342 -0.0097492,-0.0296987 -0.0145721,-0.0445984 0.0625043,-0.00211161 0.125009,-0.00422071 0.187614,-0.0063298 -0.00636256,-0.0188584 -0.0126218,-0.0377797 -0.0188836,-0.0566709 -0.0408489,0.00259542 -0.0818011,0.00517572 -0.12265,0.0077913 -0.0408464,0.00261306 -0.0816952,0.0052236 -0.122542,0.00781902 0.0130325,0.0401534 0.0260726,0.0803648 0.0391026,0.120485 0.0130401,0.0401484 0.0260676,0.0803018 0.0391052,0.12042 0.0430008,0.00327829 0.08611,0.0065717 0.129111,0.00986764 0.0430059,0.00329341 0.08611,0.00658934 0.129217,0.00989787zm-0.357987 -0.116781c0.00369154,0.0101801 0.00667754,0.0205769 0.00995583,0.0308023 0.00328837,0.0102557 0.00667754,0.0205744 0.00995583,0.0308351 0.00595939,0.0186593 0.000587119,0.0289503 -0.0163209,0.0280104 -0.0433712,-0.00240643 -0.0867248,-0.00661958 -0.129932,-0.00993315 -0.04321,-0.00330853 -0.086624,-0.00665234 -0.129834,-0.00993063 -0.00995583,-0.0320043 -0.0198109,-0.0640716 -0.0296609,-0.0960759 -0.00985504,-0.0320345 -0.0197025,-0.0641044 -0.0295575,-0.0961742 0.0408489,-0.00259794 0.0819044,-0.0051732 0.122852,-0.00778878 0.0408514,-0.00261054 0.0819019,-0.00523116 0.122955,-0.00785681 0.0152928,-0.000977692 0.0271763,0.00882191 0.034693,0.0297012 0.00346728,0.00963833 0.00626429,0.0195034 0.00944178,0.0292123 0.00318506,0.00973408 0.00573764,0.0196572 0.00933847,0.0291796 0.00584851,0.0154591 0.000617357,0.0234016 -0.0175506,0.0244095 0.0156002,-0.000652635 0.0271965,0.00777114 0.0336649,0.025609zm-0.231852 -0.0523897c0.049061,-0.000519084 0.0981195,-0.00103313 0.147178,-0.00152449 0.00595435,-6.04758e-005 0.00742088,-0.00448781 0.00461884,-0.0132089 -0.000995331,-0.00309435 -0.00199066,-0.00612317 -0.00297591,-0.00922004 -0.00271133,-0.00852205 -0.00697992,-0.0127478 -0.0127251,-0.0125613 -0.0486503,0.00159757 -0.0973005,0.00321278 -0.145948,0.00480279 0.00328585,0.0105833 0.00656918,0.021164 0.00985252,0.031712zm0.0257627 0.0826074c0.0501874,0.00236864 0.100375,0.00472467 0.150565,0.00707567 0.00595183,0.000277181 0.00754436,-0.00394605 0.00471963,-0.0127226 -0.000975172,-0.00303387 -0.00191003,-0.00611562 -0.00287512,-0.00918728 -0.00272897,-0.00871104 -0.00718402,-0.0131585 -0.0131358,-0.0133072 -0.0497766,-0.00124731 -0.0995532,-0.00249967 -0.149229,-0.00376462 0.00338664,0.010679 0.00656918,0.02129 0.00995583,0.031906zm-2.71815 -0.180268c0.0190952,0.0014111 0.0382963,0.00286 0.0574974,0.00430638 0.0103792,0.0300212 0.0207004,0.059992 0.0310316,0.0899603 0.0103212,0.0299406 0.0205492,0.0599441 0.0307192,0.0898973 0.0466016,-0.00168324 0.0931,-0.00340176 0.139593,-0.00508249 -0.00913185,-0.0272947 -0.0183065,-0.0545769 -0.0275014,-0.0818842 -0.00917468,-0.0272469 -0.0183695,-0.0545895 -0.0276097,-0.0819195 0.0195135,0.0014489 0.0390271,0.00292804 0.0586414,0.00437442 0.0094443,0.0281716 0.0188886,0.056308 0.0282321,0.0844444 0.00933847,0.0281364 0.0187551,0.0562828 0.0281238,0.0844419 0.00650871,0.0195639 -0.00132795,0.0319741 -0.0235578,0.0339244 -0.0602137,0.00528911 -0.120601,0.00830534 -0.1808,0.012453 -0.0199268,0.0013733 -0.0356656,-0.00981724 -0.0449386,-0.0345292 -0.0124278,-0.0331307 -0.0231547,-0.0668409 -0.0346652,-0.100193 -0.0115307,-0.0334204 -0.0231446,-0.0667728 -0.034766,-0.100193zm0.00799037 0.206613c0.00747128,0.0215722 -0.00137078,0.0347156 -0.0270881,0.0374925 -0.0229783,0.00247699 -0.0839656,0.00598458 -0.182977,0.0126218 -0.0195135,0.00130527 -0.0354665,-0.0114425 -0.0461859,-0.0390422 -0.00661958,-0.0170466 -0.0152046,-0.0433334 -0.0276072,-0.0781826 -0.0124026,-0.0348517 -0.0281716,-0.0784371 -0.0471207,-0.130923 -0.00751664,-0.0208188 0.00315734,-0.0320774 0.0316566,-0.0304571 0.0614132,0.003495 0.122678,0.0091772 0.184015,0.0137986 0.02574,0.00194027 0.0438349,0.0119137 0.0512709,0.0311652 0.0116743,0.0302303 0.0214311,0.0612015 0.0320698,0.0917796 0.0106362,0.0305756 0.0212749,0.0611864 0.0319665,0.0917468zm-0.0603019 -0.0149098c-0.00850945,-0.024402 -0.0169786,-0.0488493 -0.0255309,-0.0732362 -0.00857496,-0.0244499 -0.0171247,-0.048867 -0.02574,-0.0733042 -0.0514775,-0.00235352 -0.102958,-0.00470955 -0.154433,-0.00706559 0.00944178,0.0265212 0.0188936,0.0531053 0.0283304,0.0795962 0.00945186,0.0265186 0.0188911,0.0530398 0.0282321,0.079561 0.0497136,-0.00184955 0.0994273,-0.00370162 0.149141,-0.00555117zm-0.411412 0.0830282c-0.00850945,-0.0232555 -0.0171172,-0.0465109 -0.0255334,-0.0697714 -0.00839606,-0.0232202 -0.0168123,-0.0465764 -0.0253217,-0.0698672 -0.0317599,-0.0299204 -0.063865,-0.0604456 -0.0958995,-0.0915755 -0.0325209,-0.0316036 -0.0651778,-0.0639154 -0.0979758,-0.0967285 0.0315507,0.00238879 0.0633106,0.00478011 0.0950705,0.0071689 0.0168123,0.016525 0.0338009,0.0329492 0.0505452,0.0491038 0.0166737,0.0160866 0.0335212,0.0319413 0.0502327,0.0476902 0.00539495,-0.0148418 0.0108302,-0.0295424 0.0165023,-0.0440213 0.00563937,-0.0143983 0.0114173,-0.0286076 0.0174347,-0.0426758 0.0316566,0.00238879 0.0635198,0.00478011 0.0953804,0.0071689 -0.011624,0.0258811 -0.0232882,0.052309 -0.0341461,0.0793266 -0.0110394,0.0274737 -0.0216907,0.0556655 -0.0320698,0.0843083 0.0080962,0.0226154 0.01621,0.0452636 0.0243894,0.0677833 0.00821715,0.0226129 0.016399,0.0451653 0.024596,0.0677127 -0.0210657,0.00148166 -0.0422398,0.00293056 -0.0632048,0.00437694zm2.58777 0.0383795l0.138731 -0.387159 0.129053 0 0.138731 0.387159 -0.126364 0 -0.015056 -0.0510844 -0.126364 0 -0.0145192 0.0510844 -0.124212 0zm-1.30751 -0.182282l0.0776056 -0.204877 0.125291 0 -0.140201 0.387159 -0.125392 0 -0.0422449 -0.116655 -0.0422449 0.116655 -0.125392 0 -0.140201 -0.387159 0.125291 0 0.0776056 0.204877 0.0776056 -0.204877 0.0546701 0 0.0776056 0.204877zm0.116875 0.182282l0.138731 -0.387159 0.129053 0 0.138731 0.387159 -0.126364 0 -0.015056 -0.0510844 -0.126364 0 -0.0145167 0.0510844 -0.124215 0zm0.202183 -0.270473l-0.0392538 0.138731 0.0801204 0 -0.0408665 -0.138731zm0.463197 0.0946371l-0.00483806 -0.0881863 0 -0.123136 0.121524 0 0 0.387159 -0.118835 0 -0.138195 -0.210786 0.00484058 0.0881838 0 0.122602 -0.121526 0 0 -0.387159 0.118837 0 0.138192 0.211323zm0.406738 0l-0.00483806 -0.0881863 0 -0.123136 0.121524 0 0 0.387159 -0.118835 0 -0.138195 -0.210786 0.00483806 0.0881838 0 0.122602 -0.121524 0 0 -0.387159 0.118835 0 0.138195 0.211323zm0.320703 -0.0946371l-0.0392538 0.138731 0.0801204 0 -0.0408665 -0.138731zm1.24917 -0.164431c0.00742844,0 0.014552,0.00185459 0.0213631,0.00557889 0.00683377,0.00370414 0.012201,0.00903357 0.0160992,0.0159606 0.00389817,0.0069522 0.00584851,0.0142093 0.00584851,0.0217763 0,0.00754436 -0.00191003,0.014746 -0.0057326,0.0215773 -0.00384021,0.00683377 -0.00916712,0.0121783 -0.016021,0.0160009 -0.00683377,0.00382257 -0.0140304,0.0057326 -0.0215571,0.0057326 -0.0075494,0 -0.0147284,-0.00191003 -0.0215823,-0.0057326 -0.00683377,-0.00382257 -0.0121783,-0.00916712 -0.0160009,-0.0160009 -0.00382257,-0.00683125 -0.0057326,-0.0140329 -0.0057326,-0.0215773 0,-0.00756703 0.00195034,-0.0148241 0.00584851,-0.0217763 0.00389817,-0.006927 0.0092654,-0.0122564 0.0160765,-0.0159606 0.00683377,-0.0037243 0.0139573,-0.00557889 0.0213908,-0.00557889zm5.54362e-005 0.00849433c-0.00596443,0 -0.0116769,0.00148418 -0.0171373,0.00445757 -0.00546298,0.00297087 -0.00976936,0.0072571 -0.0129141,0.012836 -0.00316742,0.00557637 -0.00473223,0.0114249 -0.00473223,0.0175279 0,0.0060753 0.00154717,0.0118684 0.00461632,0.0173692 0.00306663,0.00550078 0.00735285,0.00980464 0.0128536,0.0128914 0.00550078,0.00309183 0.0112712,0.00463396 0.0173137,0.00463396 0.00606018,0 0.0118306,-0.00154213 0.0173314,-0.00463396 0.00548314,-0.00308679 0.00976936,-0.00739065 0.0128561,-0.0128914 0.00308931,-0.00550078 0.00463396,-0.0112939 0.00463396,-0.0173692 0,-0.00610302 -0.00156229,-0.0119515 -0.00470955,-0.0175279 -0.00314726,-0.00557889 -0.0074738,-0.00986512 -0.0129519,-0.012836 -0.00548314,-0.00297339 -0.0112157,-0.00445757 -0.01716,-0.00445757zm-0.0196294 0.0580013l0 -0.0459566 0.00934099 0c0.00874379,0 0.0136474,3.77974e-005 0.0146906,0.000115912 0.00308679,0.000249463 0.00550078,0.00086682 0.00721678,0.00183443 0.00171852,0.000960053 0.00314726,0.00242911 0.00428622,0.00439709 0.0011566,0.00198814 0.00173616,0.00419047 0.00173616,0.00660446 0,0.00329845 -0.00107849,0.00613577 -0.00326065,0.00848929 -0.00216453,0.00237368 -0.00521352,0.00382257 -0.00912933,0.00440213 0.00138842,0.000521604 0.00246943,0.00109864 0.00322034,0.001716 0.000755948,0.000619877 0.00179664,0.00179664 0.00310946,0.00353531 0.000347736,0.000440969 0.00146906,0.0023132 0.00339672,0.00559401l0.00542266 0.00926792 -0.0115206 0 -0.00386037 -0.00745112c-0.00258786,-0.00501949 -0.00474987,-0.00818439 -0.00644823,-0.00947706 -0.00168072,-0.00129267 -0.00384021,-0.00195034 -0.00644571,-0.00195034l-0.00241399 0 0 0.0188785 -0.00934099 0zm0.00934099 -0.026118l0.00378226 0c0.00538487,0 0.00872615,-0.000209145 0.010039,-0.000614837 0.00129267,-0.000423331 0.00231572,-0.00114148 0.00306663,-0.00217965 0.000773586,-0.00104321 0.00113896,-0.00221997 0.00113896,-0.00353531 0,-0.00129267 -0.000365375,-0.00242911 -0.00109864,-0.00341688 -0.000735789,-0.00100037 -0.00177396,-0.00171852 -0.00314474,-0.00215949 -0.00135315,-0.00042585 -0.00469191,-0.000637516 -0.0100012,-0.000637516l-0.00378226 0 0 0.0125437z"/>
 </g>
</svg>
