<?xml version="1.0" encoding="UTF-8"?>
<!DOCTYPE svg PUBLIC "-//W3C//DTD SVG 1.1//EN" "http://www.w3.org/Graphics/SVG/1.1/DTD/svg11.dtd">
<!-- Creator: CorelDRAW -->
<svg xmlns="http://www.w3.org/2000/svg" xml:space="preserve" width="6.76083in" height="0.874335in" style="shape-rendering:geometricPrecision; text-rendering:geometricPrecision; image-rendering:optimizeQuality; fill-rule:evenodd; clip-rule:evenodd"
viewBox="0 0 0.911201 0.11784"
 xmlns:xlink="http://www.w3.org/1999/xlink">
 <defs>
  <style type="text/css">
   <![CDATA[
    .fil0 {fill:#153E22}
   ]]>
  </style>
 </defs>
 <g id="Layer_x0020_1">
  <metadata id="CorelCorpID_0Corel-Layer"/>
  <path class="fil0" d="M0.672822 0.0134968l0.216466 0 -0.211755 0.0138624 0.0220561 0.064905 0.189699 0.0124186 -0.185478 0 0.00447098 0.0131572 -0.461611 0 -0.00447098 -0.0131572 -0.211131 0 0.206424 -0.0138523 -0.0220763 -0.0649629 -0.184347 -0.0123708 0.180143 0 -0.00458665 -0.0134968 0.461611 0 0.00458665 0.0134968zm0.185764 0.0289934c0.00283084,0.00835191 0.00567176,0.0167081 0.00849358,0.0250706 0.00281917,0.00835562 0.00561923,0.0167181 0.00842884,0.0250706 0.00497082,0.000382575 0.00996286,0.000758782 0.0149554,0.00114136 -0.00291786,-0.00861881 -0.00583466,-0.0172514 -0.00875305,-0.025884 -0.0029168,-0.0086257 -0.00585695,-0.0172583 -0.00879603,-0.0258904 0.00771517,-0.000260002 0.0154309,-0.000519474 0.0231683,-0.000786374 -0.00157805,-0.00464077 -0.00315558,-0.00928155 -0.0047331,-0.0139292 -0.00989865,0.000635148 -0.0197973,0.00126393 -0.0296737,0.00189324 -0.00985567,0.000627719 -0.0197538,0.00125756 -0.0296307,0.00188634 0.00136209,0.00406665 0.0027019,0.00812003 0.00406293,0.0121861 0.00747798,-0.000252573 0.0149777,-0.000512045 0.0224774,-0.000758251zm-0.018241 0.0474477c-0.00142683,-0.00425767 -0.00283137,-0.00852276 -0.00425767,-0.0127879 -0.0135291,-0.000635679 -0.027037,-0.00127136 -0.0405667,-0.00190704 -0.00103736,-0.00313701 -0.00205296,-0.00626075 -0.00309031,-0.00939775 0.00786692,0.000177757 0.0157556,0.000355513 0.023622,0.000526372 -0.00131752,-0.00403958 -0.00265786,-0.00809296 -0.00401942,-0.0121458 -0.00778043,6.84495e-005 -0.0155821,0.00012947 -0.0233848,0.000191553 -0.00103736,-0.00312374 -0.00205296,-0.00625385 -0.00306856,-0.00939138 0.0131619,-0.000444657 0.0263239,-0.000888783 0.0395071,-0.00133291 -0.00133981,-0.00397113 -0.00265786,-0.00795553 -0.00397644,-0.0119336 -0.00860183,0.000546535 -0.0172254,0.00108989 -0.0258272,0.00164067 -0.00860129,0.000550249 -0.0172031,0.00109997 -0.0258044,0.0016465 0.00274435,0.00845538 0.00549029,0.016923 0.00823411,0.0253714 0.00274594,0.00845431 0.00548923,0.0169097 0.00823464,0.0253576 0.00905497,0.000690332 0.0181328,0.00138385 0.0271877,0.00207789 0.00905603,0.000693516 0.0181328,0.00138756 0.02721,0.00208426zm-0.0753836 -0.0245914c0.000777353,0.00214369 0.00140613,0.00433302 0.00209647,0.00648626 0.000692455,0.00215961 0.00140613,0.00433248 0.00209647,0.00649316 0.00125491,0.00392922 0.000123634,0.00609625 -0.0034368,0.00589833 -0.00913297,-0.000506739 -0.0182622,-0.00139393 -0.0273607,-0.00209169 -0.00909901,-0.0006967 -0.018241,-0.00140083 -0.02734,-0.00209116 -0.00209647,-0.00673936 -0.00417171,-0.013492 -0.00624589,-0.0202313 -0.00207524,-0.00674573 -0.00414889,-0.0134989 -0.00622413,-0.020252 0.00860183,-0.000547066 0.0172472,-0.00108936 0.0258697,-0.00164014 0.00860236,-0.000549719 0.0172466,-0.00110156 0.0258914,-0.00165446 0.00322031,-0.000205879 0.0057227,0.00185769 0.00730553,0.00625438 0.000730128,0.00202961 0.00131911,0.00410697 0.00198822,0.00615144 0.000670699,0.00204977 0.00120821,0.00413934 0.00196647,0.00614454 0.00123156,0.00325533 0.000130001,0.00492784 -0.00369574,0.00514008 0.00328505,-0.00013743 0.00572694,0.00163642 0.00708904,0.00539266zm-0.0488226 -0.011032c0.0103311,-0.000109307 0.0206617,-0.000217553 0.0309923,-0.000321023 0.00125385,-1.27348e-005 0.00156267,-0.000945028 0.00097262,-0.00278149 -0.000209594,-0.000651597 -0.000419187,-0.0012894 -0.000626658,-0.00194153 -0.000570943,-0.00179455 -0.00146981,-0.00268439 -0.00267961,-0.00264512 -0.0102446,0.000336411 -0.0204892,0.000676536 -0.0307333,0.00101136 0.000691924,0.00222859 0.00138332,0.00445665 0.00207471,0.00667781zm0.00542502 0.0173952c0.0105683,0.00049878 0.0211366,0.000994906 0.0317054,0.00148997 0.00125332,5.83678e-005 0.00158867,-0.000830946 0.000993845,-0.00267908 -0.000205349,-0.000638862 -0.000402207,-0.00128781 -0.000605434,-0.00193463 -0.000574658,-0.00183434 -0.00151279,-0.00277088 -0.0027661,-0.00280219 -0.0104818,-0.000262655 -0.0209636,-0.000526372 -0.0314242,-0.000792741 0.000713149,0.00224875 0.00138332,0.00448318 0.00209647,0.00671867zm-0.57238 -0.0379603c0.00402101,0.000297145 0.00806431,0.00060225 0.0121076,0.000906824 0.00218561,0.00632177 0.00435902,0.0126329 0.00653454,0.0189435 0.00217341,0.00630479 0.00432718,0.0126228 0.00646875,0.0189303 0.00981322,-0.000354452 0.0196047,-0.000716332 0.0293951,-0.00107025 -0.00192295,-0.00574764 -0.00385493,-0.0114926 -0.00579115,-0.0172429 -0.00193197,-0.00573756 -0.00386819,-0.0114953 -0.00581397,-0.0172503 0.00410909,0.000305105 0.00821819,0.000616576 0.0123485,0.00092115 0.00198875,0.00593229 0.0039775,0.0118572 0.00594503,0.017782 0.00196647,0.00592486 0.00394938,0.0118519 0.00592221,0.0177815 0.00137058,0.00411971 -0.000279635,0.00673299 -0.00496073,0.00714369 -0.0126796,0.00111376 -0.0253958,0.00174891 -0.0380723,0.00262231 -0.00419612,0.000289186 -0.00751035,-0.00206728 -0.00946302,-0.00727104 -0.002617,-0.00697655 -0.00487584,-0.0140751 -0.00729969,-0.0210984 -0.0024281,-0.00703757 -0.00487371,-0.0140608 -0.00732092,-0.0210984zm0.00168259 0.0435079c0.00157328,0.00454261 -0.000288655,0.0073103 -0.00570413,0.00789504 -0.00483869,0.000521596 -0.0176812,0.00126021 -0.0385307,0.00265786 -0.00410909,0.000274859 -0.00746843,-0.00240953 -0.00972567,-0.00822137 -0.00139393,-0.00358962 -0.00320174,-0.00912501 -0.00581344,-0.0164634 -0.00261169,-0.00733896 -0.00593229,-0.016517 -0.00992253,-0.0275692 -0.00158283,-0.00438395 0.000664863,-0.00675475 0.00666614,-0.00641356 0.0129322,0.000735965 0.0258331,0.00193251 0.0387493,0.00290566 0.00542025,0.000408575 0.00923061,0.00250876 0.0107965,0.00656267 0.00245835,0.00636581 0.00451289,0.0128876 0.00675316,0.0193266 0.00223973,0.0064385 0.00448,0.0128844 0.0067314,0.0193197zm-0.0126982 -0.00313966c-0.00179189,-0.00513849 -0.00357529,-0.0102865 -0.00537621,-0.0154218 -0.00180569,-0.00514857 -0.00360607,-0.0102902 -0.00542025,-0.0154362 -0.01084,-0.000495596 -0.0216805,-0.000991722 -0.0325199,-0.00148785 0.00198822,0.00558474 0.00397856,0.0111827 0.00596572,0.0167611 0.00199034,0.00558421 0.00397803,0.0111689 0.00594503,0.0167537 0.0104685,-0.000389473 0.0209371,-0.000779476 0.0314056,-0.00116895zm-0.0866338 0.0174838c-0.00179189,-0.00489706 -0.00360448,-0.00979412 -0.00537674,-0.0146922 -0.00176801,-0.00488963 -0.00354027,-0.00980792 -0.00533217,-0.0147124 -0.00668789,-0.00630054 -0.0134485,-0.0127284 -0.0201942,-0.0192837 -0.00684814,-0.00665499 -0.0137249,-0.0134591 -0.0206314,-0.0203688 0.00664385,0.000503025 0.0133317,0.00100658 0.0200196,0.0015096 0.00354027,0.00347978 0.00711769,0.00693834 0.0106436,0.0103401 0.00351109,0.00338746 0.00705879,0.0067261 0.0105778,0.0100424 0.00113605,-0.00312533 0.00228059,-0.00622095 0.00347501,-0.00926987 0.00118752,-0.00303194 0.00240422,-0.00602409 0.00367134,-0.00898652 0.00666614,0.000503025 0.0133758,0.00100658 0.0200849,0.0015096 -0.00244773,0.00544996 -0.00490396,0.0110151 -0.00719039,0.0167043 -0.00232463,0.00578531 -0.00456755,0.0117219 -0.00675316,0.0177534 0.00170487,0.00476228 0.00341346,0.00953147 0.00513584,0.0142736 0.00173034,0.00476175 0.00345325,0.00951077 0.00517935,0.0142587 -0.00443595,0.000312003 -0.00889473,0.000617107 -0.0133095,0.000921681zm0.544925 0.00808182l0.0292136 -0.0815266 0.0271755 0 0.0292136 0.0815266 -0.0266094 0 -0.00317043 -0.0107572 -0.0266094 0 -0.00305741 0.0107572 -0.0261562 0zm-0.275332 -0.0383843l0.0163419 -0.0431423 0.0263833 0 -0.029523 0.0815266 -0.0264045 0 -0.00889579 -0.0245649 -0.00889579 0.0245649 -0.0264045 0 -0.029523 -0.0815266 0.0263833 0 0.0163419 0.0431423 0.0163419 -0.0431423 0.0115123 0 0.0163419 0.0431423zm0.0246111 0.0383843l0.0292136 -0.0815266 0.0271755 0 0.0292136 0.0815266 -0.0266094 0 -0.00317043 -0.0107572 -0.0266094 0 -0.00305688 0.0107572 -0.0261567 0zm0.0425751 -0.0569553l-0.00826595 0.0292136 0.0168715 0 -0.00860554 -0.0292136zm0.0975385 0.0199284l-0.00101878 -0.01857 0 -0.0259296 0.02559 0 0 0.0815266 -0.0250239 0 -0.0291006 -0.0443866 0.00101931 0.0185695 0 0.0258171 -0.0255906 0 0 -0.0815266 0.0250244 0 0.0291001 0.0444996zm0.0856495 0l-0.00101878 -0.01857 0 -0.0259296 0.02559 0 0 0.0815266 -0.0250239 0 -0.0291006 -0.0443866 0.00101878 0.0185695 0 0.0258171 -0.02559 0 0 -0.0815266 0.0250239 0 0.0291006 0.0444996zm0.0675326 -0.0199284l-0.00826595 0.0292136 0.0168715 0 -0.00860554 -0.0292136zm0.263047 -0.0346254c0.00156426,0 0.00306431,0.000390534 0.00449857,0.00117479 0.00143903,0.000780006 0.00256925,0.00190226 0.00339011,0.00336093 0.000820864,0.00146397 0.00123156,0.00299215 0.00123156,0.00458559 0,0.00158867 -0.000402207,0.00310517 -0.00120715,0.00454367 -0.00080866,0.00143903 -0.00193038,0.00256447 -0.00337366,0.00336942 -0.00143903,0.000804945 -0.00295447,0.00120715 -0.00453942,0.00120715 -0.00158973,0 -0.00310145,-0.000402207 -0.00454473,-0.00120715 -0.00143903,-0.000804945 -0.00256447,-0.00193038 -0.00336942,-0.00336942 -0.000804945,-0.0014385 -0.00120715,-0.002955 -0.00120715,-0.00454367 0,-0.00159344 0.000410697,-0.00312162 0.00123156,-0.00458559 0.000820864,-0.00145866 0.00195108,-0.00258092 0.00338533,-0.00336093 0.00143903,-0.000784251 0.00293909,-0.00117479 0.0045044,-0.00117479zm1.16736e-005 0.00178871c-0.00125597,0 -0.00245888,0.000312533 -0.00360872,0.000938661 -0.00115038,0.000625597 -0.0020572,0.00152818 -0.00271941,0.00270296 -0.000666985,0.00117425 -0.000996498,0.00240582 -0.000996498,0.00369097 0,0.00127932 0.000325799,0.0024992 0.00097209,0.00365754 0.00064576,0.00115834 0.00154834,0.00206463 0.00270668,0.00271463 0.00115834,0.000651067 0.00237345,0.000975804 0.00364587,0.000975804 0.00127613,0 0.00249124,-0.000324737 0.00364958,-0.000975804 0.00115462,-0.000650005 0.0020572,-0.0015563 0.00270721,-0.00271463 0.000650536,-0.00115834 0.000975804,-0.00237822 0.000975804,-0.00365754 0,-0.00128515 -0.000328982,-0.00251671 -0.000991722,-0.00369097 -0.00066274,-0.00117479 -0.00157381,-0.00207736 -0.00272737,-0.00270296 -0.00115462,-0.000626128 -0.00236177,-0.000938661 -0.0036135,-0.000938661zm-0.0041335 0.0122137l0 -0.00967739 0.001967 0c0.00184124,0 0.00287382,7.95925e-006 0.00309349,2.44084e-005 0.000650005,5.2531e-005 0.00115834,0.000182532 0.00151969,0.000386289 0.000361881,0.000202165 0.00066274,0.000511514 0.000902579,0.000925926 0.000243553,0.000418656 0.000365595,0.000882415 0.000365595,0.00139075 0,0.000694577 -0.000227104,0.00129205 -0.000686618,0.00178765 -0.0004558,0.000499841 -0.00109785,0.000804945 -0.00192242,0.000926987 0.00029237,0.000109838 0.000520004,0.000231349 0.000678128,0.00036135 0.000159185,0.000130532 0.00037833,0.00037833 0.000654781,0.000744455 7.32251e-005,9.28579e-005 0.000309349,0.000487106 0.000715271,0.00117797l0.00114189 0.00195161 -0.00242598 0 -0.000812905 -0.00156903c-0.000544943,-0.00105699 -0.00100021,-0.00172344 -0.00135785,-0.00199565 -0.000353921,-0.000272206 -0.00080866,-0.000410697 -0.00135732,-0.000410697l-0.000508331 0 0 0.00397538 -0.001967 0zm0.001967 -0.00549984l0.000796455 0c0.00113393,0 0.00183753,-4.40412e-005 0.00211398,-0.00012947 0.000272206,-8.91436e-005 0.000487637,-0.000240369 0.00064576,-0.000458983 0.000162899,-0.000219675 0.000239839,-0.000467473 0.000239839,-0.000744455 0,-0.000272206 -7.69394e-005,-0.000511514 -0.000231349,-0.000719516 -0.00015494,-0.000210655 -0.000373554,-0.000361881 -0.000662209,-0.000454738 -0.000284941,-8.96742e-005 -0.000988008,-0.000134246 -0.00210602,-0.000134246l-0.000796455 0 0 0.00264141z"/>
 </g>
</svg>
