<?xml version="1.0" encoding="UTF-8"?>
<!DOCTYPE svg PUBLIC "-//W3C//DTD SVG 1.1//EN" "http://www.w3.org/Graphics/SVG/1.1/DTD/svg11.dtd">
<!-- Creator: CorelDRAW -->
<svg xmlns="http://www.w3.org/2000/svg" xml:space="preserve" width="6.93996in" height="2.63582in" style="shape-rendering:geometricPrecision; text-rendering:geometricPrecision; image-rendering:optimizeQuality; fill-rule:evenodd; clip-rule:evenodd"
viewBox="0 0 7.17211 2.72399"
 xmlns:xlink="http://www.w3.org/1999/xlink">
 <defs>
  <style type="text/css">
   <![CDATA[
    .fil0 {fill:#153E22}
    .fil3 {fill:black;fill-rule:nonzero}
    .fil1 {fill:white;fill-rule:nonzero}
    .fil2 {fill:url(#id0)}
   ]]>
  </style>
  <linearGradient id="id0" gradientUnits="userSpaceOnUse" x1="3.47396" y1="2.22177" x2="3.47396" y2="0.502217">
   <stop offset="0" style="stop-color:#D7D7D7"/>
   <stop offset="0.65098" style="stop-color:#FEFEFE"/>
   <stop offset="1" style="stop-color:white"/>
  </linearGradient>
 </defs>
 <g id="Layer_x0020_1">
  <metadata id="CorelCorpID_0Corel-Layer"/>
  <g id="_478193768">
   <g>
    <path id="_297579592" class="fil0" d="M5.52488 0.311997l1.41508 0 -1.49712 0.241425 -0.542627 1.59675 1.6723 0.269674 -1.76395 0 -0.103357 0.304144 -0.746913 0 -0.665356 0 -1.05025 0 -0.103357 -0.304144 -1.76394 0 1.6723 -0.269674 -0.542627 -1.59676 -1.49711 -0.241421 1.41507 0 -0.106026 -0.311997c2.91404,0 1.62844,0 4.31391,0l-0.106026 0.311997zm1.30996 1.20962c-0.00662792,0.0640211 -0.0170682,0.127717 -0.02558,0.191123 -0.00854022,0.0636264 -0.0174914,0.127497 -0.0260519,0.191123 -0.0155954,0.115905 -0.0661979,0.17897 -0.151584,0.170898 -0.212838,-0.0201279 -0.424903,-0.051815 -0.636643,-0.0777245 -0.211744,-0.0259055 -0.424431,-0.0520388 -0.636175,-0.0779483 0.0592119,-0.180671 0.118639,-0.361269 0.178112,-0.542009 0.0594235,-0.180606 0.118424,-0.36157 0.177636,-0.542468 0.187108,-0.0272725 0.374687,-0.0545776 0.561799,-0.0818136 0.18758,-0.0273051 0.375171,-0.0545166 0.562751,-0.0818136 0.070112,-0.0102002 0.100855,0.0490076 0.0866879,0.177717 -0.00667268,0.0606197 -0.0160917,0.120906 -0.02416,0.18135 -0.00803976,0.060225 -0.0188869,0.120348 -0.024632,0.180899 -0.00895115,0.0943167 -0.0530559,0.145672 -0.14116,0.153171 0.0753158,-0.00499637 0.110372,0.0476364 0.0989998,0.157496zm-0.96065 -0.299758c0.230688,-0.00886164 0.460903,-0.0179064 0.691591,-0.0270447 0.02748,-0.00108634 0.0462002,-0.028363 0.054952,-0.0815857 0.00309222,-0.0188178 0.00635125,-0.0374606 0.00947195,-0.0561319 0.00872331,-0.0522381 -0.00047197,-0.0775007 -0.027476,-0.0752223 -0.225947,0.0190822 -0.451903,0.0379529 -0.677855,0.0565876 -0.017052,0.0613602 -0.0336319,0.122265 -0.0506839,0.183397zm-0.131216 0.478606c0.24206,0.0165922 0.484579,0.0333512 0.726647,0.0497684 0.0293598,0.00199367 0.0480596,-0.0238263 0.0568439,-0.0772647 0.00305967,-0.0185981 0.00625767,-0.0370293 0.00947602,-0.0559081 0.00909763,-0.0533896 -0.00047197,-0.0805441 -0.029372,-0.0813579 -0.237787,-0.00668489 -0.475587,-0.0134064 -0.713383,-0.0202255 -0.0165759,0.0618159 -0.0336319,0.123172 -0.0502119,0.184988zm-4.88762 0.439664l-0.132518 -0.626076 -0.722834 -0.930798 0.40045 0.0472865 0.416094 0.535202 0.18867 -0.464077 0.330424 0.0388887 -0.311842 0.72873 0.129727 0.614668 -0.298171 0.0561766z"/>
    <polygon id="_297579880" class="fil1" points="3.98477,1.41699 4.36254,0.419707 4.97242,0.419707 4.28996,2.30428 3.67959,2.30428 3.47396,1.73644 3.26833,2.30428 2.65796,2.30428 1.9755,0.419707 2.58538,0.419707 2.96314,1.41699 3.3409,0.419707 3.60701,0.419707 "/>
    <polygon id="_478192976" class="fil2" points="3.55004,0.502217 3.39788,0.502217 2.96314,1.64991 2.52841,0.502217 2.09313,0.502217 2.71583,2.22177 3.21046,2.22177 3.47396,1.49413 3.73746,2.22177 4.23209,2.22177 4.85479,0.502217 4.41951,0.502217 3.98477,1.64991 "/>
   </g>
   <path id="_478193000" class="fil3" d="M7.03976 0.361968c0.0227034,0 0.044471,0.00566771 0.0652865,0.0170479 0.0208765,0.0113232 0.0372816,0.0276062 0.0491947,0.0487757 0.0119172,0.0212427 0.0178738,0.0434212 0.0178738,0.0665437 0,0.0230574 -0.00583859,0.0450609 -0.0175199,0.0659415 -0.0117301,0.0208765 -0.0280171,0.0372165 -0.0489587,0.0488936 -0.0208765,0.0116813 -0.042872,0.0175199 -0.0658764,0.0175199 -0.0230696,0 -0.0450121,-0.00583859 -0.0659537,-0.0175199 -0.0208765,-0.0116772 -0.0372165,-0.0280171 -0.0488936,-0.0488936 -0.0116813,-0.0208806 -0.0175199,-0.0428842 -0.0175199,-0.0659415 0,-0.0231225 0.00595659,-0.045301 0.0178738,-0.0665437 0.0119132,-0.0211695 0.0283182,-0.0374524 0.0491296,-0.0487757 0.0208806,-0.0113802 0.0426482,-0.0170479 0.0653638,-0.0170479zm0.000170886 0.0259543c-0.0182278,0 -0.0356826,0.00454068 -0.0523724,0.013622 -0.0166939,0.00908135 -0.0298521,0.0221785 -0.0394624,0.0392264 -0.00967945,0.0170438 -0.0144561,0.0349176 -0.0144561,0.0535645 0,0.0185696 0.0047197,0.0362725 0.0141021,0.0530803 0.0093743,0.0168119 0.0224674,0.029962 0.0392793,0.0393973 0.0168078,0.00944347 0.0344457,0.0141591 0.0529095,0.0141591 0.0185167,0 0.0361545,-0.00471563 0.0529624,-0.0141591 0.016759,-0.00943533 0.0298521,-0.0225854 0.0392915,-0.0393973 0.00943533,-0.0168078 0.014155,-0.0345108 0.014155,-0.0530803 0,-0.0186469 -0.00477666,-0.0365207 -0.0143951,-0.0535645 -0.00961435,-0.0170479 -0.0228295,-0.030145 -0.0395763,-0.0392264 -0.0167549,-0.00908135 -0.0342748,-0.013622 -0.0524375,-0.013622zm-0.0599849 0.177249l0 -0.14044 0.028542 0c0.0267192,0 0.0417042,0.000117992 0.0448941,0.000353977 0.00943533,0.000760848 0.0168078,0.0026528 0.0220605,0.00560261 0.00524863,0.00294168 0.00961435,0.00742946 0.0130931,0.013443 0.00353164,0.00607458 0.00530559,0.0128042 0.00530559,0.0201808 0,0.0100782 -0.00329565,0.0187527 -0.00996426,0.0259421 -0.00661165,0.00725857 -0.015929,0.0116813 -0.0278991,0.0134511 0.00423959,0.001599 0.00754745,0.00336075 0.00984627,0.00524863 0.00230696,0.00189195 0.00548462,0.00548462 0.00949636,0.0107983 0.001066,0.00135488 0.00448778,0.00707548 0.0103833,0.0171008l0.0165718 0.0283182 -0.0352065 0 -0.0117992 -0.0227685c-0.00790957,-0.015339 -0.0145131,-0.0250103 -0.0197088,-0.0289611 -0.00513064,-0.00395071 -0.0117301,-0.00595659 -0.0196966,-0.00595659l-0.00737657 0 0 0.0576861 -0.028542 0zm0.028542 -0.0798118l0.0115633 0c0.0164539,0 0.0266622,-0.000642856 0.030678,-0.00187567 0.00395071,-0.00130199 0.00707548,-0.00349095 0.00937023,-0.00666861 0.00236392,-0.0031858 0.00347874,-0.00678253 0.00347874,-0.0107983 0,-0.00395071 -0.00111483,-0.00742946 -0.00336075,-0.0104444 -0.00224186,-0.00305967 -0.00541952,-0.00524863 -0.00960622,-0.00660351 -0.00413381,-0.00129792 -0.0143422,-0.00194077 -0.0305601,-0.00194077l-0.0115633 0 0 0.0383313z"/>
  </g>
 </g>
</svg>
