<?xml version="1.0" encoding="UTF-8"?>
<!DOCTYPE svg PUBLIC "-//W3C//DTD SVG 1.1//EN" "http://www.w3.org/Graphics/SVG/1.1/DTD/svg11.dtd">
<!-- Creator: CorelDRAW -->
<svg xmlns="http://www.w3.org/2000/svg" xml:space="preserve" width="6.93996in" height="2.63582in" style="shape-rendering:geometricPrecision; text-rendering:geometricPrecision; image-rendering:optimizeQuality; fill-rule:evenodd; clip-rule:evenodd"
viewBox="0 0 4.58847 1.74272"
 xmlns:xlink="http://www.w3.org/1999/xlink">
 <defs>
  <style type="text/css">
   <![CDATA[
    .fil0 {fill:black}
   ]]>
  </style>
 </defs>
 <g id="Layer_x0020_1">
  <metadata id="CorelCorpID_0Corel-Layer"/>
  <path class="fil0" d="M3.53463 0.199605l0.905317 0 -0.957804 0.154455 -0.347154 1.02155 1.06988 0.172528 -1.12851 0 -0.0661245 0.194581 -0.477849 0 -0.425672 0 -0.671915 0 -0.0661245 -0.194581 -1.12851 0 1.06988 -0.172528 -0.347154 -1.02155 -0.957802 -0.154453 0.905314 0 -0.0678321 -0.199605c1.8643,0 1.04182,0 2.75989,0l-0.0678321 0.199605zm0.838065 0.773872c-0.00424032,0.0409585 -0.0109197,0.0817088 -0.0163652,0.122274 -0.00546374,0.040706 -0.0111904,0.0815682 -0.0166671,0.122274 -0.00997737,0.0741522 -0.0423511,0.114499 -0.0969781,0.109335 -0.136167,-0.0128771 -0.271838,-0.0331494 -0.407302,-0.0497255 -0.135466,-0.0165734 -0.271537,-0.0332926 -0.407003,-0.0498686 0.0378817,-0.115587 0.0759014,-0.231127 0.11395,-0.346759 0.0380171,-0.115545 0.0757635,-0.23132 0.113645,-0.347053 0.119705,-0.017448 0.239712,-0.0349169 0.35942,-0.0523415 0.120007,-0.0174689 0.240022,-0.0348778 0.360029,-0.0523415 0.0448552,-0.00652577 0.0645236,0.0313534 0.0554599,0.113697 -0.00426895,0.0387824 -0.0102949,0.0773513 -0.0154567,0.116022 -0.00514357,0.0385299 -0.0120832,0.0769947 -0.0157587,0.115733 -0.00572664,0.0603406 -0.0339434,0.0931959 -0.0903091,0.0979932 0.0481845,-0.00319651 0.0706121,0.0304761 0.0633367,0.10076zm-0.614591 -0.191775c0.147586,-0.00566938 0.29487,-0.0114559 0.442456,-0.0173023 0.0175808,-0.000695006 0.0295573,-0.0181456 0.0351564,-0.0521957 0.00197829,-0.012039 0.00406331,-0.023966 0.00605983,-0.0359112 0.00558087,-0.0334202 -0.00030195,-0.0495823 -0.0175782,-0.0481246 -0.144553,0.0122082 -0.289112,0.024281 -0.433668,0.0362028 -0.0109093,0.0392561 -0.0215166,0.0782207 -0.0324258,0.117331zm-0.0839474 0.306196c0.154861,0.0106151 0.310017,0.0213369 0.464884,0.0318401 0.0187834,0.00127548 0.0307469,-0.0152433 0.0363668,-0.0494313 0.00195747,-0.0118984 0.00400344,-0.0236901 0.00606243,-0.0357681 0.00582035,-0.0341568 -0.00030195,-0.0515294 -0.0187912,-0.05205 -0.152128,-0.00427676 -0.304264,-0.00857695 -0.456398,-0.0129396 -0.0106047,0.0395477 -0.0215166,0.0788012 -0.0321239,0.118349zm-3.12693 0.281282l-0.0847803 -0.400542 -0.462445 -0.595493 0.256194 0.0302523 0.266203 0.342404 0.120705 -0.2969 0.211394 0.0248797 -0.199506 0.466216 0.0829947 0.393243 -0.19076 0.0359399zm2.0021 -0.46264l0.24168 -0.638026 0.39018 0 -0.436612 1.20568 -0.390494 0 -0.131554 -0.363285 -0.131557 0.363285 -0.390492 0 -0.436612 -1.20568 0.39018 0 0.241677 0.638026 0.24168 -0.638026 0.170248 0 0.241677 0.638026zm1.95447 -0.674965c0.0145248,0 0.028451,0.00362601 0.041768,0.0109066 0.0133561,0.0072442 0.0238515,0.0176615 0.0314731,0.031205 0.00762424,0.0135904 0.0114351,0.0277794 0.0114351,0.0425724 0,0.0147513 -0.00373533,0.0288284 -0.0112086,0.0421871 -0.0075045,0.0133561 -0.0179244,0.0238098 -0.0313221,0.0312805 -0.0133561,0.00747327 -0.027428,0.0112086 -0.0421455,0.0112086 -0.0147591,0 -0.0287972,-0.00373533 -0.0421949,-0.0112086 -0.0133561,-0.00747066 -0.0238098,-0.0179244 -0.0312805,-0.0312805 -0.00747327,-0.0133587 -0.0112086,-0.0274358 -0.0112086,-0.0421871 0,-0.014793 0.00381082,-0.028982 0.0114351,-0.0425724 0.00762164,-0.0135435 0.018117,-0.0239608 0.0314315,-0.031205 0.0133587,-0.00728064 0.0272848,-0.0109066 0.0418175,-0.0109066zm0.000109327 0.0166047c-0.0116615,0 -0.0228285,0.00290497 -0.0335061,0.00871491 -0.0106802,0.00580994 -0.0190983,0.0141891 -0.0252467,0.0250957 -0.00619258,0.010904 -0.00924853,0.0223391 -0.00924853,0.0342687 0,0.0118802 0.0030195,0.0232059 0.00902206,0.033959 0.00599736,0.0107557 0.0143739,0.0191686 0.0251295,0.025205 0.0107531,0.00604161 0.0220372,0.00905851 0.0338497,0.00905851 0.0118463,0 0.0231304,-0.0030169 0.0338835,-0.00905851 0.0107218,-0.0060364 0.0190983,-0.0144494 0.0251374,-0.025205 0.0060364,-0.0107531 0.0090559,-0.0220788 0.0090559,-0.033959 0,-0.0119296 -0.00305594,-0.0233647 -0.00920948,-0.0342687 -0.00615093,-0.0109066 -0.0146055,-0.0192858 -0.0253196,-0.0250957 -0.0107192,-0.00580994 -0.0219278,-0.00871491 -0.0335477,-0.00871491zm-0.0383763 0.113398l0 -0.0898484 0.0182602 0c0.017094,0 0.0266809,7.54875e-005 0.0287217,0.000226463 0.0060364,0.000486765 0.0107531,0.00169717 0.0141136,0.00358436 0.00335789,0.00188198 0.00615093,0.00475311 0.00837651,0.00860037 0.00225942,0.00388631 0.00339434,0.0081917 0.00339434,0.012911 0,0.00644768 -0.00210845,0.0119973 -0.00637479,0.0165968 -0.00422991,0.00464379 -0.0101908,0.00747327 -0.0178489,0.00860558 0.00271235,0.00102299 0.0048286,0.00215009 0.00629931,0.00335789 0.00147591,0.0012104 0.00350887,0.00350887 0.00607545,0.00690841 0.000681991,0.000866805 0.00287113,0.00452665 0.0066429,0.0109405l0.0106021 0.018117 -0.0225239 0 -0.00754875 -0.0145665c-0.00506027,-0.00981338 -0.00928497,-0.0160008 -0.012609,-0.0185283 -0.00328241,-0.00252753 -0.0075045,-0.00381082 -0.0126012,-0.00381082l-0.00471927 0 0 0.0369056 -0.0182602 0zm0.0182602 -0.0510608l0.00739778 0c0.0105266,0 0.0170576,-0.000411277 0.0196268,-0.00119999 0.00252753,-0.000832966 0.00452665,-0.00223339 0.00599475,-0.00426635 0.00151235,-0.00203816 0.00222558,-0.00433923 0.00222558,-0.00690841 0,-0.00252753 -0.000713227,-0.00475311 -0.00215009,-0.00668195 -0.00143426,-0.00195747 -0.00346722,-0.00335789 -0.00614573,-0.0042247 -0.00264467,-0.000830363 -0.00917564,-0.00124164 -0.0195513,-0.00124164l-0.00739778 0 0 0.024523z"/>
 </g>
</svg>
