<?xml version="1.0" encoding="UTF-8"?>
<!DOCTYPE svg PUBLIC "-//W3C//DTD SVG 1.1//EN" "http://www.w3.org/Graphics/SVG/1.1/DTD/svg11.dtd">
<!-- Creator: CorelDRAW -->
<svg xmlns="http://www.w3.org/2000/svg" xml:space="preserve" width="6.93996in" height="2.63582in" style="shape-rendering:geometricPrecision; text-rendering:geometricPrecision; image-rendering:optimizeQuality; fill-rule:evenodd; clip-rule:evenodd"
viewBox="0 0 0.721401 0.27399"
 xmlns:xlink="http://www.w3.org/1999/xlink">
 <defs>
  <style type="text/css">
   <![CDATA[
    .fil0 {fill:#B4CE2D}
   ]]>
  </style>
 </defs>
 <g id="Layer_x0020_1">
  <metadata id="CorelCorpID_0Corel-Layer"/>
  <path class="fil0" d="M0.555716 0.0313819l0.142334 0 -0.150586 0.0242835 -0.0545797 0.160608 0.168207 0.0271249 -0.177425 0 -0.0103961 0.0305921 -0.0751276 0 -0.0669243 0 -0.105639 0 -0.0103961 -0.0305921 -0.177424 0 0.168207 -0.0271249 -0.0545797 -0.160608 -0.150586 -0.0242831 0.142334 0 -0.0106646 -0.0313819c0.293106,0 0.163796,0 0.433911,0l-0.0106646 0.0313819zm0.131761 0.121668c-0.000666664,0.00643951 -0.00171679,0.0128463 -0.00257294,0.019224 -0.000859011,0.00639981 -0.00175936,0.0128242 -0.00262041,0.019224 -0.00156865,0.0116582 -0.00665846,0.0180016 -0.0152469,0.0171896 -0.0214082,-0.00202455 -0.0427385,-0.00521177 -0.0640362,-0.00781786 -0.0212981,-0.00260568 -0.0426911,-0.00523428 -0.0639891,-0.00784037 0.00595578,-0.0181726 0.0119333,-0.0363379 0.0179152,-0.0545175 0.00597706,-0.0181661 0.0119116,-0.0363682 0.0178673,-0.0545638 0.0188201,-0.00274319 0.0376876,-0.00548965 0.0565081,-0.00822915 0.0188675,-0.00274646 0.0377363,-0.00548351 0.0566039,-0.00822915 0.00705216,-0.00102598 0.0101444,0.00492939 0.00871943,0.0178755 -0.000671166,0.00609738 -0.00161857,0.0121612 -0.00243011,0.018241 -0.000808673,0.00605768 -0.00189973,0.0121051 -0.00247759,0.0181956 -0.000900345,0.00948677 -0.00533659,0.0146523 -0.0141984,0.0154065 0.00757558,-0.000502556 0.0111017,0.00479147 0.00995781,0.0158416zm-0.0966262 -0.0301509c0.0232035,-0.000891341 0.0463596,-0.0018011 0.0695631,-0.00272027 0.00276406,-0.000109269 0.00464701,-0.00285287 0.0055273,-0.00820623 0.000311028,-0.00189277 0.000638836,-0.00376794 0.000952728,-0.00564598 0.000877427,-0.00525433 -4.74727e-005,-0.00779535 -0.00276365,-0.00756617 -0.0227267,0.00191937 -0.0454543,0.00381746 -0.0681815,0.00569182 -0.00171516,0.00617186 -0.00338284,0.0122979 -0.005098,0.0184468zm-0.0131982 0.0481402c0.0243474,0.00166891 0.048741,0.0033546 0.0730892,0.00500592 0.00295313,0.000200531 0.00483403,-0.00239655 0.0057176,-0.00777161 0.000307754,-0.00187067 0.000629423,-0.00372456 0.000953138,-0.00562347 0.000915078,-0.00537015 -4.74727e-005,-0.00810147 -0.00295436,-0.00818332 -0.0239177,-0.000672394 -0.0478365,-0.00134847 -0.071755,-0.00203437 -0.00166727,0.0062177 -0.00338284,0.0123892 -0.00505052,0.0186069zm-0.491618 0.0442233l-0.0133292 -0.0629734 -0.0727057 -0.0936236 0.040279 0.00475628 0.0418525 0.0538328 0.0189772 -0.0466788 0.0332354 0.00391159 -0.0313664 0.0732987 0.0130485 0.0618259 -0.0299913 0.00565048zm0.31477 -0.0727364l0.037997 -0.100311 0.0613442 0 -0.0686443 0.189558 -0.0613937 0 -0.020683 -0.0571158 -0.0206834 0.0571158 -0.0613933 0 -0.0686443 -0.189558 0.0613442 0 0.0379966 0.100311 0.037997 -0.100311 0.0267664 0 0.0379966 0.100311zm0.307283 -0.106118c0.0022836,0 0.00447308,0.000570082 0.00656679,0.00171475 0.00209985,0.00113894 0.00374994,0.00277675 0.00494821,0.00490606 0.00119869,0.00213668 0.00179782,0.00436749 0.00179782,0.00669324 0,0.00231921 -0.00058727,0.00453242 -0.00176222,0.00663268 -0.00117986,0.00209985 -0.00281808,0.00374339 -0.00492448,0.00491793 -0.00209985,0.00117495 -0.00431224,0.00176222 -0.00662613,0.00176222 -0.00232043,0 -0.00452751,-0.00058727 -0.0066339,-0.00176222 -0.00209985,-0.00117454 -0.00374339,-0.00281808 -0.00491793,-0.00491793 -0.00117495,-0.00210026 -0.00176222,-0.00431347 -0.00176222,-0.00663268 0,-0.00232575 0.000599139,-0.00455656 0.00179782,-0.00669324 0.00119828,-0.00212932 0.00284836,-0.00376712 0.00494167,-0.00490606 0.00210026,-0.00114467 0.00428973,-0.00171475 0.00657456,-0.00171475zm1.71884e-005 0.00261059c-0.00183343,0 -0.0035891,0.00045672 -0.00526784,0.00137016 -0.00167914,0.000913441 -0.00300265,0.00223081 -0.00396929,0.00394556 -0.0009736,0.00171434 -0.00145406,0.00351216 -0.00145406,0.00538774 0,0.00186781 0.000474727,0.00364844 0.00141845,0.00533904 0.000942907,0.00169101 0.00225987,0.0030137 0.00395088,0.00396274 0.0016906,0.000949864 0.00346469,0.00142418 0.00532186,0.00142418 0.00186249,0 0.00363657,-0.000474318 0.00532718,-0.00142418 0.00168569,-0.000949045 0.00300265,-0.00227173 0.0039521,-0.00396274 0.000949045,-0.0016906 0.00142377,-0.00347124 0.00142377,-0.00533904 0,-0.00187558 -0.000480457,-0.00367341 -0.00144792,-0.00538774 -0.000967052,-0.00171475 -0.00229629,-0.00303212 -0.00398075,-0.00394556 -0.00168528,-0.000913441 -0.0034475,-0.00137016 -0.00527438,-0.00137016zm-0.00603354 0.0178285l0 -0.014126 0.00287087 0c0.00268753,0 0.00419479,1.18682e-005 0.00451564,3.56045e-005 0.000949045,7.65293e-005 0.0016906,0.000266829 0.00221894,0.000563534 0.000527929,0.000295886 0.000967052,0.000747286 0.00131696,0.00135215 0.000355227,0.000611007 0.000533659,0.0012879 0.000533659,0.00202987 0,0.00101371 -0.000331491,0.00188622 -0.00100225,0.00260936 -0.000665027,0.000730098 -0.0016022,0.00117495 -0.00280621,0.00135297 0.000426436,0.000160834 0.000759154,0.000338039 0.000990379,0.000527929 0.000232043,0.0001903 0.000551666,0.000551666 0.000955184,0.00108614 0.000107223,0.000136279 0.0004514,0.000711682 0.0010444,0.00172007l0.00166687 0.00284836 -0.00354122 0 -0.00118682 -0.00229015c-0.000795577,-0.00154286 -0.00145979,-0.00251565 -0.0019824,-0.00291302 -0.000516061,-0.000397379 -0.00117986,-0.000599139 -0.00198117,-0.000599139l-0.000741966 0 0 0.00580231 -0.00287087 0zm0.00287087 -0.0080278l0.00116308 0c0.001655,0 0.0026818,-6.46611e-005 0.00308573,-0.000188663 0.000397379,-0.000130959 0.000711682,-0.000351134 0.000942497,-0.000670757 0.000237773,-0.000320441 0.000349907,-0.000682216 0.000349907,-0.00108614 0,-0.000397379 -0.000112134,-0.000747286 -0.000338039,-0.00105054 -0.000225495,-0.000307754 -0.000545118,-0.000527929 -0.000966234,-0.000664209 -0.000415796,-0.00013055 -0.0014426,-0.000195211 -0.00307386,-0.000195211l-0.00116308 0 0 0.00385552z"/>
 </g>
</svg>
