<?xml version="1.0" encoding="UTF-8"?>
<!DOCTYPE svg PUBLIC "-//W3C//DTD SVG 1.1//EN" "http://www.w3.org/Graphics/SVG/1.1/DTD/svg11.dtd">
<!-- Creator: CorelDRAW -->
<svg xmlns="http://www.w3.org/2000/svg" xml:space="preserve" width="6.93996in" height="2.63582in" style="shape-rendering:geometricPrecision; text-rendering:geometricPrecision; image-rendering:optimizeQuality; fill-rule:evenodd; clip-rule:evenodd"
viewBox="0 0 0.961405 0.365145"
 xmlns:xlink="http://www.w3.org/1999/xlink">
 <defs>
  <style type="text/css">
   <![CDATA[
    .fil0 {fill:#153E22}
   ]]>
  </style>
 </defs>
 <g id="Layer_x0020_1">
  <metadata id="CorelCorpID_0Corel-Layer"/>
  <path class="fil0" d="M0.740598 0.0418224l0.189688 0 -0.200685 0.0323624 -0.0727379 0.214041 0.224168 0.0361492 -0.236453 0 -0.0138548 0.0407698 -0.100122 0 -0.0891894 0 -0.140784 0 -0.0138548 -0.0407698 -0.236452 0 0.224167 -0.0361492 -0.0727379 -0.214041 -0.200685 -0.0323619 0.189687 0 -0.0142126 -0.0418224c0.39062,0 0.218289,0 0.57827,0l-0.0142126 0.0418224zm0.175597 0.162147c-0.000888458,0.00858188 -0.00228796,0.0171201 -0.00342893,0.0256196 -0.0011448,0.00852897 -0.00234468,0.0170907 -0.0034922,0.0256196 -0.00209052,0.0155368 -0.00887367,0.0239905 -0.0203194,0.0229085 -0.0285304,-0.0026981 -0.0569573,-0.00694568 -0.0853405,-0.0104188 -0.0283837,-0.00347257 -0.056894,-0.00697567 -0.0852777,-0.0104488 0.00793721,-0.0242185 0.0159033,-0.0484272 0.0238755,-0.072655 0.00796558,-0.0242098 0.0158744,-0.0484676 0.0238116,-0.0727166 0.0250813,-0.00365582 0.0502259,-0.007316 0.0753078,-0.0109669 0.0251446,-0.00366018 0.0502908,-0.00730782 0.0754354,-0.0109669 0.00939834,-0.00136732 0.0135194,0.00656935 0.0116203,0.0238226 -0.000894457,0.00812592 -0.00215706,0.0162071 -0.00323859,0.0243096 -0.00107771,0.00807302 -0.00253175,0.0161324 -0.00330186,0.0242491 -0.00119988,0.0126429 -0.00711202,0.019527 -0.0189221,0.0205322 0.0100959,-0.000669752 0.0147951,0.00638555 0.0132707,0.0211119zm-0.128773 -0.0401818c0.0309231,-0.00118788 0.061783,-0.00240031 0.0927061,-0.00362528 0.00368364,-0.000145622 0.00619302,-0.00380199 0.00736618,-0.0109364 0.000414504,-0.00252248 0.00085137,-0.0050215 0.00126969,-0.00752435 0.00116934,-0.0070024 -6.32665e-005,-0.0103888 -0.00368309,-0.0100834 -0.0302877,0.00255793 -0.0605766,0.0050875 -0.0908648,0.00758543 -0.00228577,0.00822519 -0.00450828,0.0163893 -0.00679406,0.0245839zm-0.0175892 0.064156c0.0324475,0.00222414 0.0649567,0.00447065 0.0974053,0.00667134 0.00393561,0.000267246 0.00644227,-0.00319387 0.00761979,-0.0103572 0.000410141,-0.00249303 0.000838826,-0.00496369 0.00127024,-0.00749435 0.00121952,-0.00715675 -6.32665e-005,-0.0107967 -0.00393725,-0.0109058 -0.0318748,-0.000896093 -0.0637513,-0.00179709 -0.0956273,-0.00271119 -0.00222196,0.00828627 -0.00450828,0.0165109 -0.00673079,0.0247972zm-0.655174 0.058936l-0.0177637 -0.0839241 -0.0968942 -0.124771 0.0536794 0.00633865 0.0557765 0.0717425 0.0252908 -0.0622084 0.0442925 0.00521294 -0.0418017 0.0976845 0.0173896 0.0823948 -0.0399691 0.00753035zm0.419492 -0.0969351l0.0506383 -0.133683 0.0817528 0 -0.0914817 0.252622 -0.0818188 0 -0.027564 -0.0761177 -0.0275645 0.0761177 -0.0818183 0 -0.0914817 -0.252622 0.0817528 0 0.0506377 0.133683 0.0506383 -0.133683 0.0356714 0 0.0506377 0.133683zm0.409513 -0.141423c0.00304334,0 0.00596123,0.000759743 0.0087515,0.00228523 0.00279845,0.00151785 0.00499751,0.00370054 0.00659444,0.00653826 0.00159748,0.00284754 0.00239594,0.00582052 0.00239594,0.00892003 0,0.00309079 -0.00078265,0.00604031 -0.00234849,0.00883931 -0.00157239,0.00279845 -0.00375563,0.00498878 -0.00656281,0.00655408 -0.00279845,0.00156585 -0.00574689,0.00234849 -0.00883058,0.00234849 -0.00309242,0 -0.00603377,-0.00078265 -0.00884094,-0.00234849 -0.00279845,-0.0015653 -0.00498878,-0.00375563 -0.00655408,-0.00655408 -0.00156585,-0.002799 -0.00234849,-0.00574852 -0.00234849,-0.00883931 0,-0.00309951 0.000798466,-0.00607249 0.00239594,-0.00892003 0.00159693,-0.00283772 0.00379599,-0.00502041 0.00658571,-0.00653826 0.002799,-0.00152549 0.00571689,-0.00228523 0.00876186,-0.00228523zm2.29068e-005 0.00347911c-0.00244339,0 -0.00478316,0.000608667 -0.0070204,0.001826 -0.00223778,0.00121733 -0.0040016,0.00297298 -0.00528984,0.00525821 -0.00129751,0.00228468 -0.00193781,0.00468063 -0.00193781,0.0071802 0,0.00248921 0.000632665,0.00486225 0.00189036,0.0071153 0.0012566,0.0022536 0.0030117,0.00401633 0.0052653,0.00528111 0.00225305,0.00126587 0.00461736,0.00189799 0.00709239,0.00189799 0.00248212,0 0.00484643,-0.000632119 0.00709948,-0.00189799 0.00224651,-0.00126478 0.0040016,-0.00302752 0.00526693,-0.00528111 0.00126478,-0.00225305 0.00189745,-0.00462609 0.00189745,-0.0071153 0,-0.00249957 -0.0006403,-0.00489552 -0.00192963,-0.0071802 -0.00128878,-0.00228523 -0.00306024,-0.00404087 -0.00530511,-0.00525821 -0.00224596,-0.00121733 -0.00459445,-0.001826 -0.00702912,-0.001826zm-0.00804084 0.0237598l0 -0.0188256 0.00382599 0c0.00358165,0 0.00559036,1.58166e-005 0.00601795,4.74499e-005 0.00126478,0.00010199 0.00225305,0.000355601 0.00295716,0.000751017 0.000703567,0.000394325 0.00128878,0.000995901 0.0017551,0.001802 0.000473408,0.000814283 0.000711202,0.00171638 0.000711202,0.00270519 0,0.00135096 -0.000441774,0.00251375 -0.00133569,0.00347747 -0.000886276,0.000972995 -0.00213524,0.00156585 -0.00373981,0.00180309 0.000568307,0.000214342 0.00101172,0.000450501 0.00131987,0.000703567 0.000309242,0.000253611 0.0007352,0.0007352 0.00127296,0.00144749 0.000142895,0.000181618 0.000601577,0.000948452 0.00139186,0.00229232l0.00222142 0.00379599 -0.00471935 0 -0.00158166 -0.00305206c-0.00106026,-0.00205616 -0.00194544,-0.00335258 -0.00264192,-0.00388216 -0.00068775,-0.000529584 -0.00157239,-0.000798466 -0.00264028,-0.000798466l-0.000988811 0 0 0.00773269 -0.00382599 0zm0.00382599 -0.0106986l0.00155003 0c0.0022056,0 0.00357401,-8.61733e-005 0.00411232,-0.00025143 0.000529584,-0.000174528 0.000948452,-0.000467954 0.00125606,-0.000893912 0.000316878,-0.000427049 0.000466317,-0.000909183 0.000466317,-0.00144749 0,-0.000529584 -0.00014944,-0.000995901 -0.000450501,-0.00140004 -0.000300516,-0.000410141 -0.000726474,-0.000703567 -0.00128769,-0.000885185 -0.000554127,-0.000173983 -0.00192254,-0.000260156 -0.0040965,-0.000260156l-0.00155003 0 0 0.00513822z"/>
 </g>
</svg>
