<?xml version="1.0" encoding="UTF-8"?>
<!DOCTYPE svg PUBLIC "-//W3C//DTD SVG 1.1//EN" "http://www.w3.org/Graphics/SVG/1.1/DTD/svg11.dtd">
<!-- Creator: CorelDRAW -->
<svg xmlns="http://www.w3.org/2000/svg" xml:space="preserve" width="6.93996in" height="2.63582in" style="shape-rendering:geometricPrecision; text-rendering:geometricPrecision; image-rendering:optimizeQuality; fill-rule:evenodd; clip-rule:evenodd"
viewBox="0 0 1.61459 0.613227"
 xmlns:xlink="http://www.w3.org/1999/xlink">
 <defs>
  <style type="text/css">
   <![CDATA[
    .fil0 {fill:white}
   ]]>
  </style>
 </defs>
 <g id="Layer_x0020_1">
  <metadata id="CorelCorpID_0Corel-Layer"/>
  <path class="fil0" d="M1.24377 0.0702369l0.318563 0 -0.337032 0.0543497 -0.122157 0.359462 0.37647 0.0607092 -0.397101 0 -0.0232679 0.0684691 -0.168146 0 -0.149785 0 -0.236433 0 -0.0232679 -0.0684691 -0.397099 0 0.376468 -0.0607092 -0.122157 -0.359463 -0.337031 -0.0543488 0.318562 0 -0.0238687 -0.0702369c0.65601,0 0.366596,0 0.971151,0l-0.0238687 0.0702369zm0.294898 0.27231c-0.00149208,0.0144125 -0.00384241,0.0287517 -0.00575858,0.0430258 -0.00192258,0.0143236 -0.00393767,0.0287022 -0.00586483,0.0430258 -0.00351084,0.0260927 -0.0149025,0.0402899 -0.0341246,0.0384726 -0.0479143,-0.0045312 -0.0956545,-0.0116646 -0.143321,-0.0174974 -0.0476679,-0.00583185 -0.0955482,-0.011715 -0.143216,-0.0175478 0.0133298,-0.0406728 0.0267082,-0.081329 0.0400966,-0.122017 0.0133774,-0.0406581 0.0266596,-0.0813968 0.0399895,-0.122121 0.0421218,-0.00613961 0.0843498,-0.0122866 0.126473,-0.0184179 0.042228,-0.00614694 0.0844588,-0.0122728 0.126687,-0.0184179 0.0157837,-0.00229629 0.0227046,0.0110326 0.0195152,0.0400078 -0.00150216,0.0136467 -0.00362258,0.0272184 -0.00543891,0.0408257 -0.00180992,0.0135579 -0.00425184,0.0270929 -0.00554516,0.0407241 -0.00201509,0.0212326 -0.011944,0.0327938 -0.031778,0.0344819 0.0169552,-0.00112479 0.024847,0.0107239 0.0222869,0.0354555zm-0.216262 -0.0674817c0.0519325,-0.00199494 0.103759,-0.0040311 0.155691,-0.00608832 0.00618633,-0.000244559 0.0104006,-0.00638509 0.0123708,-0.0183666 0.000696122,-0.00423627 0.0014298,-0.00843315 0.00213233,-0.0126364 0.0019638,-0.0117599 -0.00010625,-0.017447 -0.00618541,-0.0169341 -0.0508655,0.00429581 -0.101733,0.00854398 -0.152599,0.012739 -0.00383875,0.0138134 -0.00757124,0.0275243 -0.01141,0.0412864zm-0.0295394 0.107744c0.0544926,0.00373524 0.109089,0.00750804 0.163583,0.0112039 0.0066095,0.000448815 0.0108192,-0.0053638 0.0127967,-0.0173939 0.000688794,-0.00418681 0.00140873,-0.00833606 0.00213325,-0.0125861 0.00204806,-0.0120191 -0.00010625,-0.0181321 -0.00661224,-0.0183153 -0.0535309,-0.00150491 -0.107064,-0.00301806 -0.160597,-0.00455319 -0.00373158,0.013916 -0.00757124,0.0277286 -0.0113037,0.0416446zm-1.10031 0.0989776l-0.0298325 -0.140943 -0.162725 -0.209542 0.0901496 0.0106452 0.0936715 0.120485 0.0424735 -0.104473 0.0743852 0.00875465 -0.0702021 0.164052 0.0292041 0.138374 -0.0671245 0.0126465zm0.704497 -0.162794l0.0850423 -0.224508 0.137296 0 -0.153635 0.424256 -0.137407 0 -0.0462912 -0.127833 -0.0462921 0.127833 -0.137406 0 -0.153635 -0.424256 0.137296 0 0.0850414 0.224508 0.0850423 -0.224508 0.0599068 0 0.0850414 0.224508zm0.68774 -0.237507c0.005111,0 0.0100113,0.00127592 0.0146973,0.00383783 0.00469974,0.00254909 0.00839285,0.00621472 0.0110748,0.0109804 0.00268282,0.00478217 0.00402377,0.00977502 0.00402377,0.0149804 0,0.00519069 -0.00131439,0.0101441 -0.00394408,0.0148448 -0.00264068,0.00469974 -0.00630723,0.00837819 -0.0110216,0.011007 -0.00469974,0.00262969 -0.00965136,0.00394408 -0.0148301,0.00394408 -0.00519344,0 -0.0101332,-0.00131439 -0.0148475,-0.00394408 -0.00469974,-0.00262878 -0.00837819,-0.00630723 -0.011007,-0.011007 -0.00262969,-0.00470066 -0.00394408,-0.00965411 -0.00394408,-0.0148448 0,-0.00520534 0.00134095,-0.0101982 0.00402377,-0.0149804 0.0026819,-0.00476569 0.00637501,-0.00843132 0.0110601,-0.0109804 0.00470066,-0.00256191 0.00960099,-0.00383783 0.0147147,-0.00383783zm3.84699e-005 0.00584284c-0.00410346,0 -0.00803288,0.0010222 -0.0117901,0.0030666 -0.00375814,0.0020444 -0.00672032,0.00499284 -0.0088838,0.00883067 -0.00217904,0.00383691 -0.00325437,0.00786068 -0.00325437,0.0120585 0,0.0041804 0.0010625,0.00816569 0.00317468,0.0119495 0.00211035,0.00378471 0.00505788,0.00674506 0.00884258,0.00886914 0.00378379,0.00212592 0.00775443,0.00318751 0.011911,0.00318751 0.00416849,0 0.00813913,-0.00106159 0.0119229,-0.00318751 0.0037728,-0.00212409 0.00672032,-0.00508444 0.00884533,-0.00886914 0.00212409,-0.00378379 0.00318659,-0.00776909 0.00318659,-0.0119495 0,-0.0041978 -0.00107533,-0.00822157 -0.00324063,-0.0120585 -0.00216439,-0.00383783 -0.0051394,-0.00678627 -0.00890945,-0.00883067 -0.00377188,-0.0020444 -0.00771596,-0.0030666 -0.0118048,-0.0030666zm-0.0135039 0.0399024l0 -0.0316158 0.00642539 0c0.00601504,0 0.00938849,2.65625e-005 0.0101066,7.96876e-005 0.00212409,0.000171283 0.00378379,0.000597199 0.00496628,0.00126126 0.00118158,0.000662232 0.00216439,0.00167252 0.00294753,0.0030263 0.000795045,0.00136751 0.0011944,0.00288249 0.0011944,0.00454311 0,0.00226881 -0.000741919,0.00422161 -0.00224316,0.0058401 -0.00148842,0.00163405 -0.00358594,0.00262969 -0.00628067,0.00302813 0.00095442,0.000359968 0.00169909,0.000756575 0.0022166,0.00118158 0.000519344,0.000425917 0.0012347,0.0012347 0.00213783,0.00243093 0.000239979,0.000305011 0.00101029,0.00159284 0.0023375,0.00384974l0.00373066 0.00637501 -0.00792572 0 -0.00265625 -0.00512566c-0.00178061,-0.00345313 -0.00326719,-0.00563034 -0.00443686,-0.00651973 -0.00115501,-0.000889387 -0.00264068,-0.00134095 -0.00443411,-0.00134095l-0.00166062 0 0 0.0129863 -0.00642539 0zm0.00642539 -0.0179673l0.00260313 0c0.0037041,0 0.00600222,-0.00014472 0.00690626,-0.000422253 0.000889387,-0.000293104 0.00159284,-0.000785885 0.00210943,-0.00150124 0.000532167,-0.000717189 0.000783137,-0.00152689 0.000783137,-0.00243093 0,-0.000889387 -0.00025097,-0.00167252 -0.000756575,-0.00235124 -0.000504688,-0.000688794 -0.00122005,-0.00118158 -0.00216256,-0.00148659 -0.000930605,-0.000292188 -0.00322872,-0.000436908 -0.0068797,-0.000436908l-0.00260313 0 0 0.00862916z"/>
 </g>
</svg>
