<?xml version="1.0" encoding="UTF-8"?>
<!DOCTYPE svg PUBLIC "-//W3C//DTD SVG 1.1//EN" "http://www.w3.org/Graphics/SVG/1.1/DTD/svg11.dtd">
<!-- Creator: CorelDRAW -->
<svg xmlns="http://www.w3.org/2000/svg" xml:space="preserve" width="6.76083in" height="0.874335in" style="shape-rendering:geometricPrecision; text-rendering:geometricPrecision; image-rendering:optimizeQuality; fill-rule:evenodd; clip-rule:evenodd"
viewBox="0 0 1.5289 0.197723"
 xmlns:xlink="http://www.w3.org/1999/xlink">
 <defs>
  <style type="text/css">
   <![CDATA[
    .fil0 {fill:white}
   ]]>
  </style>
 </defs>
 <g id="Layer_x0020_1">
  <metadata id="CorelCorpID_0Corel-Layer"/>
  <path class="fil0" d="M1.12892 0.0226461l0.363206 0 -0.355302 0.0232595 0.0370078 0.108904 0.318294 0.020837 -0.311212 0 0.00750182 0.0220763 -0.774534 0 -0.00750182 -0.0220763 -0.354256 0 0.346357 -0.0232426 -0.0370417 -0.109001 -0.309315 -0.0207569 0.302261 0 -0.00769591 -0.0226461 0.774535 0 0.00769591 0.0226461zm0.311691 0.0486478c0.00474984,0.0140136 0.00951661,0.0280343 0.0142513,0.0420657 0.00473026,0.0140198 0.00942846,0.0280512 0.0141427,0.0420657 0.0083405,0.000641919 0.0167166,0.00127315 0.0250936,0.00191507 -0.00489586,-0.0144614 -0.00978993,-0.028946 -0.0146867,-0.0434306 -0.00489408,-0.014473 -0.00982733,-0.0289576 -0.0147588,-0.0434413 0.0129452,-0.000436256 0.0258913,-0.000871621 0.0388739,-0.00131945 -0.0026478,-0.00778672 -0.00529472,-0.0155734 -0.00794163,-0.0233717 -0.0166089,0.00106571 -0.0332178,0.00212074 -0.0497892,0.00317665 -0.0165368,0.00105325 -0.0331447,0.00211005 -0.0497171,0.00316508 0.00228545,0.00682339 0.0045335,0.0136245 0.00681716,0.020447 0.0125472,-0.000423791 0.025131,-0.000859157 0.0377147,-0.00127226zm-0.0306065 0.0796122c-0.00239406,-0.00714391 -0.00475074,-0.0143003 -0.00714391,-0.0214567 -0.0227004,-0.0010666 -0.0453652,-0.0021332 -0.0680666,-0.0031998 -0.00174057,-0.00526356 -0.00344464,-0.0105049 -0.00518521,-0.0157684 0.0131998,0.000298256 0.0264362,0.000596513 0.0396352,0.000883195 -0.00221066,-0.00677799 -0.0044596,-0.0135791 -0.00674416,-0.0203794 -0.0130547,0.000114851 -0.0261451,0.000217238 -0.0392372,0.000321405 -0.00174057,-0.0052413 -0.00344464,-0.0104933 -0.00514871,-0.0157577 0.0220843,-0.000746086 0.0441687,-0.00149128 0.0662886,-0.00223648 -0.00224805,-0.00666314 -0.0044596,-0.0133485 -0.00667204,-0.0200232 -0.0144329,0.000917027 -0.0289024,0.00182871 -0.0433353,0.00275286 -0.014432,0.000923259 -0.028865,0.00184563 -0.043297,0.00276266 0.00460472,0.0141872 0.00921212,0.0283949 0.0138159,0.0425705 0.00460739,0.0141854 0.00921034,0.0283726 0.0138168,0.0425474 0.0151933,0.0011583 0.0304248,0.00232195 0.0456181,0.00348648 0.0151951,0.00116365 0.0304248,0.00232818 0.0456555,0.00349717zm-0.126486 -0.0412618c0.00130432,0.00359688 0.00235934,0.00727033 0.00351765,0.0108832 0.00116186,0.00362359 0.00235934,0.00726944 0.00351765,0.0108948 0.0021056,0.0065928 0.000207444,0.0102289 -0.00576659,0.00989677 -0.0153241,-0.000850253 -0.0306421,-0.00233886 -0.0459083,-0.00350963 -0.0152672,-0.00116899 -0.0306065,-0.00235044 -0.0458736,-0.00350874 -0.00351765,-0.0113079 -0.00699968,-0.0226381 -0.0104799,-0.033946 -0.00348203,-0.0113186 -0.00696139,-0.0226497 -0.0104434,-0.0339808 0.0144329,-0.000917918 0.0289389,-0.00182782 0.0434065,-0.00275197 0.0144338,-0.000922369 0.028938,-0.0018483 0.0434431,-0.00277601 0.00540334,-0.000345443 0.00960208,0.003117 0.0122579,0.0104942 0.00122508,0.00340547 0.00221333,0.00689106 0.00333602,0.0103215 0.00112536,0.0034393 0.00202725,0.00694537 0.00329952,0.0103099 0.00206643,0.0054621 0.000218128,0.00826838 -0.00620106,0.00862451 0.00551196,-0.000230592 0.0096092,0.00274574 0.0118946,0.0090483zm-0.081919 -0.0185106c0.0173345,-0.000183405 0.0346681,-0.00036503 0.0520017,-0.000538642 0.00210382,-2.13676e-005 0.00262199,-0.00158566 0.00163195,-0.00466705 -0.000351675,-0.00109331 -0.000703351,-0.00216347 -0.00105147,-0.00325767 -0.000957982,-0.00301105 -0.00246618,-0.00450412 -0.0044961,-0.00443823 -0.0171894,0.000564461 -0.0343787,0.00113516 -0.0515672,0.00169695 0.00116097,0.00373933 0.00232106,0.00747778 0.00348114,0.0112046zm0.00910261 0.0291873c0.0177325,0.000836899 0.0354649,0.00166935 0.0531983,0.00250001 0.00210293,9.79349e-005 0.00266561,-0.00139424 0.00166757,-0.00449521 -0.000344553,-0.00107194 -0.000674861,-0.0021608 -0.00101585,-0.0032461 -0.000964214,-0.00307783 -0.0025383,-0.00464924 -0.00464123,-0.00470177 -0.0175873,-0.000440707 -0.0351747,-0.000883195 -0.0527264,-0.00133013 0.00119659,0.00377317 0.00232106,0.00752229 0.00351765,0.0112732zm-0.960392 -0.0636933c0.00674683,0.000498578 0.013531,0.00101051 0.0203153,0.00152155 0.00366722,0.0106072 0.00731396,0.0211967 0.0109643,0.0317852 0.00364674,0.0105788 0.00726054,0.0211798 0.0108539,0.031763 0.0164655,-0.000594732 0.0328946,-0.00120193 0.0493218,-0.00179577 -0.00322651,-0.00964392 -0.00646816,-0.0192834 -0.00971693,-0.0289318 -0.00324165,-0.00962701 -0.00649042,-0.0192878 -0.00975521,-0.0289442 0.00689462,0.000511933 0.0137892,0.00103455 0.0207195,0.00154559 0.00333691,0.00995375 0.00667382,0.019895 0.00997512,0.0298363 0.00329952,0.00994129 0.00662663,0.0198861 0.00993684,0.0298354 0.00229969,0.00691243 -0.000469197,0.0112972 -0.00832358,0.0119863 -0.021275,0.00186878 -0.0426115,0.00293449 -0.0638812,0.00439995 -0.00704063,0.000485223 -0.0126016,-0.00346868 -0.0158779,-0.0122 -0.00439105,-0.0117059 -0.00818113,-0.0236166 -0.0122481,-0.0354008 -0.00407409,-0.0118083 -0.00817757,-0.0235925 -0.0122837,-0.0354008zm0.0028232 0.0730016c0.00263979,0.00762201 -0.000484333,0.0122659 -0.00957092,0.013247 -0.00811881,0.000875182 -0.0296672,0.0021145 -0.0646504,0.0044596 -0.00689462,0.000461185 -0.0125312,-0.00404293 -0.0163186,-0.0137946 -0.00233886,-0.006023 -0.00537218,-0.0153108 -0.00975432,-0.0276239 -0.00438214,-0.012314 -0.00995375,-0.0277138 -0.0166489,-0.0462582 -0.00265582,-0.0073558 0.00111557,-0.0113337 0.0111851,-0.0107613 0.0216988,0.00123487 0.0433451,0.00324254 0.0650172,0.00487538 0.0090946,0.000685545 0.015488,0.00420942 0.0181153,0.0110114 0.00412484,0.0106811 0.00757215,0.021624 0.0113311,0.032428 0.00375803,0.0108031 0.00751695,0.0216187 0.0112946,0.0324165zm-0.0213062 -0.00526801c-0.0030066,-0.00862184 -0.00599896,-0.0172597 -0.0090207,-0.0258762 -0.00302975,-0.00863875 -0.0060506,-0.0172659 -0.0090946,-0.0259002 -0.0181883,-0.000831557 -0.0363775,-0.001664 -0.0545649,-0.00249645 0.00333602,0.00937059 0.0066756,0.0187634 0.0100098,0.0281234 0.00333958,0.0093697 0.00667471,0.0187403 0.00997512,0.0281109 0.0175651,-0.000653493 0.0351302,-0.00130788 0.0526952,-0.00196137zm-0.145362 0.029336c-0.0030066,-0.00821674 -0.00604793,-0.0164335 -0.00902159,-0.024652 -0.00296654,-0.00820428 -0.0059402,-0.0164566 -0.0089468,-0.0246858 -0.0112216,-0.0105716 -0.0225651,-0.0213569 -0.0338837,-0.0323559 -0.0114904,-0.0111664 -0.023029,-0.0225829 -0.0346173,-0.0341766 0.0111477,0.000844021 0.0223692,0.00168893 0.0335908,0.00253295 0.0059402,0.0058387 0.0119427,0.0116418 0.0178589,0.0173496 0.00589123,0.00568379 0.0118439,0.0112857 0.0177485,0.0168502 0.00190617,-0.00524397 0.00382659,-0.0104381 0.00583069,-0.0155538 0.00199253,-0.00508728 0.00403403,-0.0101078 0.00616011,-0.0150784 0.0111851,0.000844021 0.0224431,0.00168893 0.0337003,0.00253295 -0.00410704,0.00914445 -0.00822832,0.0184821 -0.0120647,0.0280281 -0.00390048,0.00970713 -0.00766385,0.019668 -0.0113311,0.0297882 0.00286059,0.0079906 0.00572741,0.0159928 0.00861738,0.0239495 0.00290333,0.00798971 0.00579419,0.0159581 0.00869039,0.0239246 -0.00744306,0.000523507 -0.0149244,0.00103544 -0.0223318,0.00154648zm0.914325 0.0135604l0.0490173 -0.136793 0.0455976 0 0.0490173 0.136793 -0.0446477 0 -0.00531965 -0.0180494 -0.0446477 0 -0.00513001 0.0180494 -0.0438873 0zm-0.461977 -0.0644047l0.02742 -0.0723882 0.0442684 0 -0.0495364 0.136793 -0.044304 0 -0.0149262 -0.0412173 -0.0149262 0.0412173 -0.044304 0 -0.0495364 -0.136793 0.0442684 0 0.02742 0.0723882 0.02742 -0.0723882 0.0193163 0 0.02742 0.0723882zm0.0412947 0.0644047l0.0490173 -0.136793 0.0455976 0 0.0490173 0.136793 -0.0446477 0 -0.00531965 -0.0180494 -0.0446477 0 -0.00512912 0.0180494 -0.0438882 0zm0.0714364 -0.0955649l-0.0138694 0.0490173 0.0283085 0 -0.0144392 -0.0490173zm0.163659 0.0334377l-0.00170941 -0.0311584 0 -0.0435072 0.0429374 0 0 0.136793 -0.0419874 0 -0.0488277 -0.074476 0.0017103 0.0311576 0 0.0433184 -0.0429382 0 0 -0.136793 0.0419883 0 0.0488268 0.0746656zm0.143711 0l-0.00170941 -0.0311584 0 -0.0435072 0.0429374 0 0 0.136793 -0.0419874 0 -0.0488277 -0.074476 0.00170941 0.0311576 0 0.0433184 -0.0429374 0 0 -0.136793 0.0419874 0 0.0488277 0.0746656zm0.113313 -0.0334377l-0.0138694 0.0490173 0.0283085 0 -0.0144392 -0.0490173zm0.441364 -0.0580977c0.00262466,0 0.00514158,0.000655274 0.00754811,0.00197116 0.00241454,0.00130877 0.00431092,0.00319179 0.00568824,0.00563927 0.00137732,0.00245639 0.00206643,0.0050205 0.00206643,0.00769413 0,0.00266561 -0.000674861,0.00521014 -0.00202547,0.00762379 -0.00135684,0.00241454 -0.00323898,0.00430291 -0.00566064,0.00565352 -0.00241454,0.00135061 -0.00495729,0.00202547 -0.00761667,0.00202547 -0.00266739,0 -0.00520391,-0.000674861 -0.00762557,-0.00202547 -0.00241454,-0.00135061 -0.00430291,-0.00323898 -0.00565352,-0.00565352 -0.00135061,-0.00241365 -0.00202547,-0.00495818 -0.00202547,-0.00762379 0,-0.00267362 0.000689106,-0.00523774 0.00206643,-0.00769413 0.00137732,-0.00244748 0.0032737,-0.00433051 0.00568023,-0.00563927 0.00241454,-0.00131589 0.00493147,-0.00197116 0.00755791,-0.00197116zm1.9587e-005 0.00300126c-0.00210738,0 -0.00412573,0.000524397 -0.00605505,0.00157497 -0.00193021,0.00104968 -0.00345176,0.00256411 -0.00456288,0.00453528 -0.00111913,0.00197027 -0.00167202,0.0040367 -0.00167202,0.00619305 0,0.00214656 0.000546655,0.0041934 0.00163106,0.00613696 0.00108352,0.00194356 0.00259795,0.00346423 0.00454151,0.00455487 0.00194356,0.00109242 0.00398239,0.00163729 0.00611737,0.00163729 0.00214121,0 0.00418004,-0.000544874 0.00612361,-0.00163729 0.00193733,-0.00109064 0.00345176,-0.0026113 0.0045424,-0.00455487 0.00109153,-0.00194356 0.00163729,-0.0039904 0.00163729,-0.00613696 0,-0.00215635 -0.000551997,-0.00422278 -0.001664,-0.00619305 -0.00111201,-0.00197116 -0.00264068,-0.00348559 -0.00457623,-0.00453528 -0.00193733,-0.00105057 -0.0039628,-0.00157497 -0.00606306,-0.00157497zm-0.00693557 0.0204933l0 -0.0162376 0.00330041 0c0.0030894,0 0.00482196,1.33548e-005 0.00519055,4.09546e-005 0.00109064,8.81415e-005 0.00194356,0.000306269 0.00254987,0.000648151 0.000607197,0.000339211 0.00111201,0.000858266 0.00151443,0.0015536 0.000408656,0.000702461 0.000613429,0.0014806 0.000613429,0.00233352 0,0.00116543 -0.000381056,0.00216792 -0.00115207,0.00299948 -0.000764783,0.000838679 -0.00184207,0.00135061 -0.00322562,0.00155538 0.000490565,0.000184296 0.000872511,0.000388179 0.00113783,0.000606306 0.000267095,0.000219018 0.000634797,0.000634797 0.00109865,0.00124912 0.000122864,0.000155806 0.000519055,0.000817312 0.00120015,0.00197651l0.00191596 0.00327459 -0.00407053 0 -0.00136397 -0.00263267c-0.000914356,-0.00177351 -0.00167825,-0.00289175 -0.00227832,-0.00334848 -0.000593842,-0.000456733 -0.00135684,-0.000689106 -0.00227743,-0.000689106l-0.000852924 0 0 0.00667026 -0.00330041 0zm0.00330041 -0.00922814l0.00133637 0c0.00190261,0 0.00308317,-7.38964e-005 0.00354703,-0.000217238 0.000456733,-0.000149573 0.000818202,-0.000403314 0.00108352,-0.000770125 0.000273328,-0.000368592 0.000402424,-0.00078437 0.000402424,-0.00124912 0,-0.000456733 -0.000129096,-0.000858266 -0.000388179,-0.00120727 -0.000259973,-0.000353456 -0.000626784,-0.000607197 -0.00111112,-0.000763002 -0.000478101,-0.000150464 -0.00165777,-0.00022525 -0.00353367,-0.00022525l-0.00133637 0 0 0.004432z"/>
 </g>
</svg>
